<svg height="124" viewBox="0 0 104 124" width="104" xmlns="http://www.w3.org/2000/svg">
<rect fill="white" height="100%" width="100%"/>
<rect fill="black" height="4" width="4" x="10" y="10"/>
<rect fill="black" height="4" width="4" x="14" y="10"/>
<rect fill="black" height="4" width="4" x="18" y="10"/>
<rect fill="black" height="4" width="4" x="22" y="10"/>
<rect fill="black" height="4" width="4" x="26" y="10"/>
<rect fill="black" height="4" width="4" x="30" y="10"/>
<rect fill="black" height="4" width="4" x="34" y="10"/>
<rect fill="black" height="4" width="4" x="46" y="10"/>
<rect fill="black" height="4" width="4" x="50" y="10"/>
<rect fill="black" height="4" width="4" x="54" y="10"/>
<rect fill="black" height="4" width="4" x="58" y="10"/>
<rect fill="black" height="4" width="4" x="66" y="10"/>
<rect fill="black" height="4" width="4" x="70" y="10"/>
<rect fill="black" height="4" width="4" x="74" y="10"/>
<rect fill="black" height="4" width="4" x="78" y="10"/>
<rect fill="black" height="4" width="4" x="82" y="10"/>
<rect fill="black" height="4" width="4" x="86" y="10"/>
<rect fill="black" height="4" width="4" x="90" y="10"/>
<rect fill="black" height="4" width="4" x="10" y="14"/>
<rect fill="black" height="4" width="4" x="34" y="14"/>
<rect fill="black" height="4" width="4" x="58" y="14"/>
<rect fill="black" height="4" width="4" x="66" y="14"/>
<rect fill="black" height="4" width="4" x="90" y="14"/>
<rect fill="black" height="4" width="4" x="10" y="18"/>
<rect fill="black" height="4" width="4" x="18" y="18"/>
<rect fill="black" height="4" width="4" x="22" y="18"/>
<rect fill="black" height="4" width="4" x="26" y="18"/>
<rect fill="black" height="4" width="4" x="34" y="18"/>
<rect fill="black" height="4" width="4" x="42" y="18"/>
<rect fill="black" height="4" width="4" x="50" y="18"/>
<rect fill="black" height="4" width="4" x="58" y="18"/>
<rect fill="black" height="4" width="4" x="66" y="18"/>
<rect fill="black" height="4" width="4" x="74" y="18"/>
<rect fill="black" height="4" width="4" x="78" y="18"/>
<rect fill="black" height="4" width="4" x="82" y="18"/>
<rect fill="black" height="4" width="4" x="90" y="18"/>
<rect fill="black" height="4" width="4" x="10" y="22"/>
<rect fill="black" height="4" width="4" x="18" y="22"/>
<rect fill="black" height="4" width="4" x="22" y="22"/>
<rect fill="black" height="4" width="4" x="26" y="22"/>
<rect fill="black" height="4" width="4" x="34" y="22"/>
<rect fill="black" height="4" width="4" x="42" y="22"/>
<rect fill="black" height="4" width="4" x="50" y="22"/>
<rect fill="black" height="4" width="4" x="66" y="22"/>
<rect fill="black" height="4" width="4" x="74" y="22"/>
<rect fill="black" height="4" width="4" x="78" y="22"/>
<rect fill="black" height="4" width="4" x="82" y="22"/>
<rect fill="black" height="4" width="4" x="90" y="22"/>
<rect fill="black" height="4" width="4" x="10" y="26"/>
<rect fill="black" height="4" width="4" x="18" y="26"/>
<rect fill="black" height="4" width="4" x="22" y="26"/>
<rect fill="black" height="4" width="4" x="26" y="26"/>
<rect fill="black" height="4" width="4" x="34" y="26"/>
<rect fill="black" height="4" width="4" x="42" y="26"/>
<rect fill="black" height="4" width="4" x="46" y="26"/>
<rect fill="black" height="4" width="4" x="58" y="26"/>
<rect fill="black" height="4" width="4" x="66" y="26"/>
<rect fill="black" height="4" width="4" x="74" y="26"/>
<rect fill="black" height="4" width="4" x="78" y="26"/>
<rect fill="black" height="4" width="4" x="82" y="26"/>
<rect fill="black" height="4" width="4" x="90" y="26"/>
<rect fill="black" height="4" width="4" x="10" y="30"/>
<rect fill="black" height="4" width="4" x="34" y="30"/>
<rect fill="black" height="4" width="4" x="42" y="30"/>
<rect fill="black" height="4" width="4" x="46" y="30"/>
<rect fill="black" height="4" width="4" x="54" y="30"/>
<rect fill="black" height="4" width="4" x="66" y="30"/>
<rect fill="black" height="4" width="4" x="90" y="30"/>
<rect fill="black" height="4" width="4" x="10" y="34"/>
<rect fill="black" height="4" width="4" x="14" y="34"/>
<rect fill="black" height="4" width="4" x="18" y="34"/>
<rect fill="black" height="4" width="4" x="22" y="34"/>
<rect fill="black" height="4" width="4" x="26" y="34"/>
<rect fill="black" height="4" width="4" x="30" y="34"/>
<rect fill="black" height="4" width="4" x="34" y="34"/>
<rect fill="black" height="4" width="4" x="42" y="34"/>
<rect fill="black" height="4" width="4" x="50" y="34"/>
<rect fill="black" height="4" width="4" x="58" y="34"/>
<rect fill="black" height="4" width="4" x="66" y="34"/>
<rect fill="black" height="4" width="4" x="70" y="34"/>
<rect fill="black" height="4" width="4" x="74" y="34"/>
<rect fill="black" height="4" width="4" x="78" y="34"/>
<rect fill="black" height="4" width="4" x="82" y="34"/>
<rect fill="black" height="4" width="4" x="86" y="34"/>
<rect fill="black" height="4" width="4" x="90" y="34"/>
<rect fill="black" height="4" width="4" x="42" y="38"/>
<rect fill="black" height="4" width="4" x="50" y="38"/>
<rect fill="black" height="4" width="4" x="10" y="42"/>
<rect fill="black" height="4" width="4" x="18" y="42"/>
<rect fill="black" height="4" width="4" x="22" y="42"/>
<rect fill="black" height="4" width="4" x="26" y="42"/>
<rect fill="black" height="4" width="4" x="30" y="42"/>
<rect fill="black" height="4" width="4" x="34" y="42"/>
<rect fill="black" height="4" width="4" x="46" y="42"/>
<rect fill="black" height="4" width="4" x="54" y="42"/>
<rect fill="black" height="4" width="4" x="66" y="42"/>
<rect fill="black" height="4" width="4" x="70" y="42"/>
<rect fill="black" height="4" width="4" x="74" y="42"/>
<rect fill="black" height="4" width="4" x="78" y="42"/>
<rect fill="black" height="4" width="4" x="82" y="42"/>
<rect fill="black" height="4" width="4" x="22" y="46"/>
<rect fill="black" height="4" width="4" x="42" y="46"/>
<rect fill="black" height="4" width="4" x="54" y="46"/>
<rect fill="black" height="4" width="4" x="58" y="46"/>
<rect fill="black" height="4" width="4" x="62" y="46"/>
<rect fill="black" height="4" width="4" x="66" y="46"/>
<rect fill="black" height="4" width="4" x="78" y="46"/>
<rect fill="black" height="4" width="4" x="82" y="46"/>
<rect fill="black" height="4" width="4" x="90" y="46"/>
<rect fill="black" height="4" width="4" x="18" y="50"/>
<rect fill="black" height="4" width="4" x="22" y="50"/>
<rect fill="black" height="4" width="4" x="26" y="50"/>
<rect fill="black" height="4" width="4" x="30" y="50"/>
<rect fill="black" height="4" width="4" x="34" y="50"/>
<rect fill="black" height="4" width="4" x="46" y="50"/>
<rect fill="black" height="4" width="4" x="50" y="50"/>
<rect fill="black" height="4" width="4" x="58" y="50"/>
<rect fill="black" height="4" width="4" x="66" y="50"/>
<rect fill="black" height="4" width="4" x="70" y="50"/>
<rect fill="black" height="4" width="4" x="78" y="50"/>
<rect fill="black" height="4" width="4" x="82" y="50"/>
<rect fill="black" height="4" width="4" x="86" y="50"/>
<rect fill="black" height="4" width="4" x="18" y="54"/>
<rect fill="black" height="4" width="4" x="30" y="54"/>
<rect fill="black" height="4" width="4" x="38" y="54"/>
<rect fill="black" height="4" width="4" x="42" y="54"/>
<rect fill="black" height="4" width="4" x="50" y="54"/>
<rect fill="black" height="4" width="4" x="54" y="54"/>
<rect fill="black" height="4" width="4" x="58" y="54"/>
<rect fill="black" height="4" width="4" x="62" y="54"/>
<rect fill="black" height="4" width="4" x="66" y="54"/>
<rect fill="black" height="4" width="4" x="78" y="54"/>
<rect fill="black" height="4" width="4" x="82" y="54"/>
<rect fill="black" height="4" width="4" x="14" y="58"/>
<rect fill="black" height="4" width="4" x="18" y="58"/>
<rect fill="black" height="4" width="4" x="22" y="58"/>
<rect fill="black" height="4" width="4" x="34" y="58"/>
<rect fill="black" height="4" width="4" x="38" y="58"/>
<rect fill="black" height="4" width="4" x="42" y="58"/>
<rect fill="black" height="4" width="4" x="46" y="58"/>
<rect fill="black" height="4" width="4" x="50" y="58"/>
<rect fill="black" height="4" width="4" x="58" y="58"/>
<rect fill="black" height="4" width="4" x="70" y="58"/>
<rect fill="black" height="4" width="4" x="90" y="58"/>
<rect fill="black" height="4" width="4" x="42" y="62"/>
<rect fill="black" height="4" width="4" x="58" y="62"/>
<rect fill="black" height="4" width="4" x="70" y="62"/>
<rect fill="black" height="4" width="4" x="78" y="62"/>
<rect fill="black" height="4" width="4" x="10" y="66"/>
<rect fill="black" height="4" width="4" x="14" y="66"/>
<rect fill="black" height="4" width="4" x="18" y="66"/>
<rect fill="black" height="4" width="4" x="22" y="66"/>
<rect fill="black" height="4" width="4" x="26" y="66"/>
<rect fill="black" height="4" width="4" x="30" y="66"/>
<rect fill="black" height="4" width="4" x="34" y="66"/>
<rect fill="black" height="4" width="4" x="46" y="66"/>
<rect fill="black" height="4" width="4" x="54" y="66"/>
<rect fill="black" height="4" width="4" x="62" y="66"/>
<rect fill="black" height="4" width="4" x="74" y="66"/>
<rect fill="black" height="4" width="4" x="82" y="66"/>
<rect fill="black" height="4" width="4" x="86" y="66"/>
<rect fill="black" height="4" width="4" x="10" y="70"/>
<rect fill="black" height="4" width="4" x="34" y="70"/>
<rect fill="black" height="4" width="4" x="42" y="70"/>
<rect fill="black" height="4" width="4" x="50" y="70"/>
<rect fill="black" height="4" width="4" x="70" y="70"/>
<rect fill="black" height="4" width="4" x="74" y="70"/>
<rect fill="black" height="4" width="4" x="78" y="70"/>
<rect fill="black" height="4" width="4" x="82" y="70"/>
<rect fill="black" height="4" width="4" x="86" y="70"/>
<rect fill="black" height="4" width="4" x="10" y="74"/>
<rect fill="black" height="4" width="4" x="18" y="74"/>
<rect fill="black" height="4" width="4" x="22" y="74"/>
<rect fill="black" height="4" width="4" x="26" y="74"/>
<rect fill="black" height="4" width="4" x="34" y="74"/>
<rect fill="black" height="4" width="4" x="42" y="74"/>
<rect fill="black" height="4" width="4" x="54" y="74"/>
<rect fill="black" height="4" width="4" x="62" y="74"/>
<rect fill="black" height="4" width="4" x="74" y="74"/>
<rect fill="black" height="4" width="4" x="86" y="74"/>
<rect fill="black" height="4" width="4" x="10" y="78"/>
<rect fill="black" height="4" width="4" x="18" y="78"/>
<rect fill="black" height="4" width="4" x="22" y="78"/>
<rect fill="black" height="4" width="4" x="26" y="78"/>
<rect fill="black" height="4" width="4" x="34" y="78"/>
<rect fill="black" height="4" width="4" x="42" y="78"/>
<rect fill="black" height="4" width="4" x="46" y="78"/>
<rect fill="black" height="4" width="4" x="54" y="78"/>
<rect fill="black" height="4" width="4" x="58" y="78"/>
<rect fill="black" height="4" width="4" x="62" y="78"/>
<rect fill="black" height="4" width="4" x="66" y="78"/>
<rect fill="black" height="4" width="4" x="70" y="78"/>
<rect fill="black" height="4" width="4" x="78" y="78"/>
<rect fill="black" height="4" width="4" x="10" y="82"/>
<rect fill="black" height="4" width="4" x="18" y="82"/>
<rect fill="black" height="4" width="4" x="22" y="82"/>
<rect fill="black" height="4" width="4" x="26" y="82"/>
<rect fill="black" height="4" width="4" x="34" y="82"/>
<rect fill="black" height="4" width="4" x="42" y="82"/>
<rect fill="black" height="4" width="4" x="46" y="82"/>
<rect fill="black" height="4" width="4" x="58" y="82"/>
<rect fill="black" height="4" width="4" x="66" y="82"/>
<rect fill="black" height="4" width="4" x="70" y="82"/>
<rect fill="black" height="4" width="4" x="82" y="82"/>
<rect fill="black" height="4" width="4" x="10" y="86"/>
<rect fill="black" height="4" width="4" x="34" y="86"/>
<rect fill="black" height="4" width="4" x="46" y="86"/>
<rect fill="black" height="4" width="4" x="54" y="86"/>
<rect fill="black" height="4" width="4" x="58" y="86"/>
<rect fill="black" height="4" width="4" x="62" y="86"/>
<rect fill="black" height="4" width="4" x="66" y="86"/>
<rect fill="black" height="4" width="4" x="74" y="86"/>
<rect fill="black" height="4" width="4" x="78" y="86"/>
<rect fill="black" height="4" width="4" x="82" y="86"/>
<rect fill="black" height="4" width="4" x="10" y="90"/>
<rect fill="black" height="4" width="4" x="14" y="90"/>
<rect fill="black" height="4" width="4" x="18" y="90"/>
<rect fill="black" height="4" width="4" x="22" y="90"/>
<rect fill="black" height="4" width="4" x="26" y="90"/>
<rect fill="black" height="4" width="4" x="30" y="90"/>
<rect fill="black" height="4" width="4" x="34" y="90"/>
<rect fill="black" height="4" width="4" x="42" y="90"/>
<rect fill="black" height="4" width="4" x="46" y="90"/>
<rect fill="black" height="4" width="4" x="58" y="90"/>
<rect fill="black" height="4" width="4" x="74" y="90"/>
<rect fill="black" height="4" width="4" x="86" y="90"/>
<text fill="black" font-family="monospace" font-size="10" text-anchor="middle" x="52" y="109">
Hello
</text>
</svg>