<svg height="148" viewBox="0 0 128 148" width="128" xmlns="http://www.w3.org/2000/svg">
<rect fill="white" height="100%" width="100%"/>
<rect fill="black" height="4" width="4" x="10" y="10"/>
<rect fill="black" height="4" width="4" x="18" y="10"/>
<rect fill="black" height="4" width="4" x="26" y="10"/>
<rect fill="black" height="4" width="4" x="34" y="10"/>
<rect fill="black" height="4" width="4" x="42" y="10"/>
<rect fill="black" height="4" width="4" x="50" y="10"/>
<rect fill="black" height="4" width="4" x="58" y="10"/>
<rect fill="black" height="4" width="4" x="66" y="10"/>
<rect fill="black" height="4" width="4" x="74" y="10"/>
<rect fill="black" height="4" width="4" x="82" y="10"/>
<rect fill="black" height="4" width="4" x="90" y="10"/>
<rect fill="black" height="4" width="4" x="98" y="10"/>
<rect fill="black" height="4" width="4" x="106" y="10"/>
<rect fill="black" height="4" width="4" x="114" y="10"/>
<rect fill="black" height="4" width="4" x="18" y="14"/>
<rect fill="black" height="4" width="4" x="38" y="14"/>
<rect fill="black" height="4" width="4" x="50" y="14"/>
<rect fill="black" height="4" width="4" x="54" y="14"/>
<rect fill="black" height="4" width="4" x="62" y="14"/>
<rect fill="black" height="4" width="4" x="66" y="14"/>
<rect fill="black" height="4" width="4" x="70" y="14"/>
<rect fill="black" height="4" width="4" x="78" y="14"/>
<rect fill="black" height="4" width="4" x="86" y="14"/>
<rect fill="black" height="4" width="4" x="90" y="14"/>
<rect fill="black" height="4" width="4" x="94" y="14"/>
<rect fill="black" height="4" width="4" x="106" y="14"/>
<rect fill="black" height="4" width="4" x="110" y="14"/>
<rect fill="black" height="4" width="4" x="10" y="18"/>
<rect fill="black" height="4" width="4" x="26" y="18"/>
<rect fill="black" height="4" width="4" x="30" y="18"/>
<rect fill="black" height="4" width="4" x="38" y="18"/>
<rect fill="black" height="4" width="4" x="42" y="18"/>
<rect fill="black" height="4" width="4" x="46" y="18"/>
<rect fill="black" height="4" width="4" x="54" y="18"/>
<rect fill="black" height="4" width="4" x="70" y="18"/>
<rect fill="black" height="4" width="4" x="74" y="18"/>
<rect fill="black" height="4" width="4" x="78" y="18"/>
<rect fill="black" height="4" width="4" x="98" y="18"/>
<rect fill="black" height="4" width="4" x="106" y="18"/>
<rect fill="black" height="4" width="4" x="14" y="22"/>
<rect fill="black" height="4" width="4" x="26" y="22"/>
<rect fill="black" height="4" width="4" x="38" y="22"/>
<rect fill="black" height="4" width="4" x="42" y="22"/>
<rect fill="black" height="4" width="4" x="46" y="22"/>
<rect fill="black" height="4" width="4" x="58" y="22"/>
<rect fill="black" height="4" width="4" x="66" y="22"/>
<rect fill="black" height="4" width="4" x="70" y="22"/>
<rect fill="black" height="4" width="4" x="86" y="22"/>
<rect fill="black" height="4" width="4" x="94" y="22"/>
<rect fill="black" height="4" width="4" x="106" y="22"/>
<rect fill="black" height="4" width="4" x="110" y="22"/>
<rect fill="black" height="4" width="4" x="10" y="26"/>
<rect fill="black" height="4" width="4" x="14" y="26"/>
<rect fill="black" height="4" width="4" x="18" y="26"/>
<rect fill="black" height="4" width="4" x="22" y="26"/>
<rect fill="black" height="4" width="4" x="34" y="26"/>
<rect fill="black" height="4" width="4" x="38" y="26"/>
<rect fill="black" height="4" width="4" x="50" y="26"/>
<rect fill="black" height="4" width="4" x="54" y="26"/>
<rect fill="black" height="4" width="4" x="62" y="26"/>
<rect fill="black" height="4" width="4" x="74" y="26"/>
<rect fill="black" height="4" width="4" x="86" y="26"/>
<rect fill="black" height="4" width="4" x="90" y="26"/>
<rect fill="black" height="4" width="4" x="98" y="26"/>
<rect fill="black" height="4" width="4" x="106" y="26"/>
<rect fill="black" height="4" width="4" x="110" y="26"/>
<rect fill="black" height="4" width="4" x="34" y="30"/>
<rect fill="black" height="4" width="4" x="42" y="30"/>
<rect fill="black" height="4" width="4" x="50" y="30"/>
<rect fill="black" height="4" width="4" x="66" y="30"/>
<rect fill="black" height="4" width="4" x="82" y="30"/>
<rect fill="black" height="4" width="4" x="90" y="30"/>
<rect fill="black" height="4" width="4" x="94" y="30"/>
<rect fill="black" height="4" width="4" x="110" y="30"/>
<rect fill="black" height="4" width="4" x="10" y="34"/>
<rect fill="black" height="4" width="4" x="18" y="34"/>
<rect fill="black" height="4" width="4" x="22" y="34"/>
<rect fill="black" height="4" width="4" x="26" y="34"/>
<rect fill="black" height="4" width="4" x="30" y="34"/>
<rect fill="black" height="4" width="4" x="74" y="34"/>
<rect fill="black" height="4" width="4" x="98" y="34"/>
<rect fill="black" height="4" width="4" x="102" y="34"/>
<rect fill="black" height="4" width="4" x="106" y="34"/>
<rect fill="black" height="4" width="4" x="18" y="38"/>
<rect fill="black" height="4" width="4" x="30" y="38"/>
<rect fill="black" height="4" width="4" x="94" y="38"/>
<rect fill="black" height="4" width="4" x="102" y="38"/>
<rect fill="black" height="4" width="4" x="110" y="38"/>
<rect fill="black" height="4" width="4" x="10" y="42"/>
<rect fill="black" height="4" width="4" x="14" y="42"/>
<rect fill="black" height="4" width="4" x="18" y="42"/>
<rect fill="black" height="4" width="4" x="26" y="42"/>
<rect fill="black" height="4" width="4" x="42" y="42"/>
<rect fill="black" height="4" width="4" x="46" y="42"/>
<rect fill="black" height="4" width="4" x="50" y="42"/>
<rect fill="black" height="4" width="4" x="54" y="42"/>
<rect fill="black" height="4" width="4" x="58" y="42"/>
<rect fill="black" height="4" width="4" x="62" y="42"/>
<rect fill="black" height="4" width="4" x="66" y="42"/>
<rect fill="black" height="4" width="4" x="70" y="42"/>
<rect fill="black" height="4" width="4" x="74" y="42"/>
<rect fill="black" height="4" width="4" x="78" y="42"/>
<rect fill="black" height="4" width="4" x="82" y="42"/>
<rect fill="black" height="4" width="4" x="98" y="42"/>
<rect fill="black" height="4" width="4" x="26" y="46"/>
<rect fill="black" height="4" width="4" x="42" y="46"/>
<rect fill="black" height="4" width="4" x="82" y="46"/>
<rect fill="black" height="4" width="4" x="94" y="46"/>
<rect fill="black" height="4" width="4" x="98" y="46"/>
<rect fill="black" height="4" width="4" x="10" y="50"/>
<rect fill="black" height="4" width="4" x="14" y="50"/>
<rect fill="black" height="4" width="4" x="26" y="50"/>
<rect fill="black" height="4" width="4" x="42" y="50"/>
<rect fill="black" height="4" width="4" x="50" y="50"/>
<rect fill="black" height="4" width="4" x="54" y="50"/>
<rect fill="black" height="4" width="4" x="58" y="50"/>
<rect fill="black" height="4" width="4" x="62" y="50"/>
<rect fill="black" height="4" width="4" x="66" y="50"/>
<rect fill="black" height="4" width="4" x="70" y="50"/>
<rect fill="black" height="4" width="4" x="74" y="50"/>
<rect fill="black" height="4" width="4" x="82" y="50"/>
<rect fill="black" height="4" width="4" x="98" y="50"/>
<rect fill="black" height="4" width="4" x="102" y="50"/>
<rect fill="black" height="4" width="4" x="106" y="50"/>
<rect fill="black" height="4" width="4" x="14" y="54"/>
<rect fill="black" height="4" width="4" x="18" y="54"/>
<rect fill="black" height="4" width="4" x="30" y="54"/>
<rect fill="black" height="4" width="4" x="42" y="54"/>
<rect fill="black" height="4" width="4" x="50" y="54"/>
<rect fill="black" height="4" width="4" x="82" y="54"/>
<rect fill="black" height="4" width="4" x="94" y="54"/>
<rect fill="black" height="4" width="4" x="98" y="54"/>
<rect fill="black" height="4" width="4" x="106" y="54"/>
<rect fill="black" height="4" width="4" x="110" y="54"/>
<rect fill="black" height="4" width="4" x="10" y="58"/>
<rect fill="black" height="4" width="4" x="14" y="58"/>
<rect fill="black" height="4" width="4" x="18" y="58"/>
<rect fill="black" height="4" width="4" x="42" y="58"/>
<rect fill="black" height="4" width="4" x="50" y="58"/>
<rect fill="black" height="4" width="4" x="58" y="58"/>
<rect fill="black" height="4" width="4" x="62" y="58"/>
<rect fill="black" height="4" width="4" x="66" y="58"/>
<rect fill="black" height="4" width="4" x="74" y="58"/>
<rect fill="black" height="4" width="4" x="82" y="58"/>
<rect fill="black" height="4" width="4" x="98" y="58"/>
<rect fill="black" height="4" width="4" x="110" y="58"/>
<rect fill="black" height="4" width="4" x="18" y="62"/>
<rect fill="black" height="4" width="4" x="22" y="62"/>
<rect fill="black" height="4" width="4" x="26" y="62"/>
<rect fill="black" height="4" width="4" x="42" y="62"/>
<rect fill="black" height="4" width="4" x="50" y="62"/>
<rect fill="black" height="4" width="4" x="58" y="62"/>
<rect fill="black" height="4" width="4" x="66" y="62"/>
<rect fill="black" height="4" width="4" x="82" y="62"/>
<rect fill="black" height="4" width="4" x="106" y="62"/>
<rect fill="black" height="4" width="4" x="10" y="66"/>
<rect fill="black" height="4" width="4" x="14" y="66"/>
<rect fill="black" height="4" width="4" x="18" y="66"/>
<rect fill="black" height="4" width="4" x="30" y="66"/>
<rect fill="black" height="4" width="4" x="42" y="66"/>
<rect fill="black" height="4" width="4" x="50" y="66"/>
<rect fill="black" height="4" width="4" x="58" y="66"/>
<rect fill="black" height="4" width="4" x="62" y="66"/>
<rect fill="black" height="4" width="4" x="66" y="66"/>
<rect fill="black" height="4" width="4" x="74" y="66"/>
<rect fill="black" height="4" width="4" x="82" y="66"/>
<rect fill="black" height="4" width="4" x="110" y="66"/>
<rect fill="black" height="4" width="4" x="26" y="70"/>
<rect fill="black" height="4" width="4" x="30" y="70"/>
<rect fill="black" height="4" width="4" x="42" y="70"/>
<rect fill="black" height="4" width="4" x="50" y="70"/>
<rect fill="black" height="4" width="4" x="82" y="70"/>
<rect fill="black" height="4" width="4" x="110" y="70"/>
<rect fill="black" height="4" width="4" x="10" y="74"/>
<rect fill="black" height="4" width="4" x="18" y="74"/>
<rect fill="black" height="4" width="4" x="26" y="74"/>
<rect fill="black" height="4" width="4" x="34" y="74"/>
<rect fill="black" height="4" width="4" x="42" y="74"/>
<rect fill="black" height="4" width="4" x="50" y="74"/>
<rect fill="black" height="4" width="4" x="58" y="74"/>
<rect fill="black" height="4" width="4" x="66" y="74"/>
<rect fill="black" height="4" width="4" x="74" y="74"/>
<rect fill="black" height="4" width="4" x="82" y="74"/>
<rect fill="black" height="4" width="4" x="90" y="74"/>
<rect fill="black" height="4" width="4" x="98" y="74"/>
<rect fill="black" height="4" width="4" x="106" y="74"/>
<rect fill="black" height="4" width="4" x="114" y="74"/>
<rect fill="black" height="4" width="4" x="14" y="78"/>
<rect fill="black" height="4" width="4" x="26" y="78"/>
<rect fill="black" height="4" width="4" x="42" y="78"/>
<rect fill="black" height="4" width="4" x="82" y="78"/>
<rect fill="black" height="4" width="4" x="94" y="78"/>
<rect fill="black" height="4" width="4" x="98" y="78"/>
<rect fill="black" height="4" width="4" x="106" y="78"/>
<rect fill="black" height="4" width="4" x="110" y="78"/>
<rect fill="black" height="4" width="4" x="10" y="82"/>
<rect fill="black" height="4" width="4" x="18" y="82"/>
<rect fill="black" height="4" width="4" x="22" y="82"/>
<rect fill="black" height="4" width="4" x="42" y="82"/>
<rect fill="black" height="4" width="4" x="46" y="82"/>
<rect fill="black" height="4" width="4" x="50" y="82"/>
<rect fill="black" height="4" width="4" x="54" y="82"/>
<rect fill="black" height="4" width="4" x="58" y="82"/>
<rect fill="black" height="4" width="4" x="62" y="82"/>
<rect fill="black" height="4" width="4" x="66" y="82"/>
<rect fill="black" height="4" width="4" x="70" y="82"/>
<rect fill="black" height="4" width="4" x="74" y="82"/>
<rect fill="black" height="4" width="4" x="78" y="82"/>
<rect fill="black" height="4" width="4" x="82" y="82"/>
<rect fill="black" height="4" width="4" x="94" y="82"/>
<rect fill="black" height="4" width="4" x="102" y="82"/>
<rect fill="black" height="4" width="4" x="110" y="82"/>
<rect fill="black" height="4" width="4" x="14" y="86"/>
<rect fill="black" height="4" width="4" x="22" y="86"/>
<rect fill="black" height="4" width="4" x="30" y="86"/>
<rect fill="black" height="4" width="4" x="94" y="86"/>
<rect fill="black" height="4" width="4" x="106" y="86"/>
<rect fill="black" height="4" width="4" x="10" y="90"/>
<rect fill="black" height="4" width="4" x="14" y="90"/>
<rect fill="black" height="4" width="4" x="22" y="90"/>
<rect fill="black" height="4" width="4" x="26" y="90"/>
<rect fill="black" height="4" width="4" x="74" y="90"/>
<rect fill="black" height="4" width="4" x="102" y="90"/>
<rect fill="black" height="4" width="4" x="106" y="90"/>
<rect fill="black" height="4" width="4" x="110" y="90"/>
<rect fill="black" height="4" width="4" x="14" y="94"/>
<rect fill="black" height="4" width="4" x="38" y="94"/>
<rect fill="black" height="4" width="4" x="42" y="94"/>
<rect fill="black" height="4" width="4" x="54" y="94"/>
<rect fill="black" height="4" width="4" x="82" y="94"/>
<rect fill="black" height="4" width="4" x="94" y="94"/>
<rect fill="black" height="4" width="4" x="98" y="94"/>
<rect fill="black" height="4" width="4" x="110" y="94"/>
<rect fill="black" height="4" width="4" x="10" y="98"/>
<rect fill="black" height="4" width="4" x="18" y="98"/>
<rect fill="black" height="4" width="4" x="22" y="98"/>
<rect fill="black" height="4" width="4" x="26" y="98"/>
<rect fill="black" height="4" width="4" x="30" y="98"/>
<rect fill="black" height="4" width="4" x="34" y="98"/>
<rect fill="black" height="4" width="4" x="38" y="98"/>
<rect fill="black" height="4" width="4" x="50" y="98"/>
<rect fill="black" height="4" width="4" x="62" y="98"/>
<rect fill="black" height="4" width="4" x="74" y="98"/>
<rect fill="black" height="4" width="4" x="78" y="98"/>
<rect fill="black" height="4" width="4" x="86" y="98"/>
<rect fill="black" height="4" width="4" x="98" y="98"/>
<rect fill="black" height="4" width="4" x="106" y="98"/>
<rect fill="black" height="4" width="4" x="14" y="102"/>
<rect fill="black" height="4" width="4" x="22" y="102"/>
<rect fill="black" height="4" width="4" x="34" y="102"/>
<rect fill="black" height="4" width="4" x="38" y="102"/>
<rect fill="black" height="4" width="4" x="42" y="102"/>
<rect fill="black" height="4" width="4" x="50" y="102"/>
<rect fill="black" height="4" width="4" x="54" y="102"/>
<rect fill="black" height="4" width="4" x="62" y="102"/>
<rect fill="black" height="4" width="4" x="70" y="102"/>
<rect fill="black" height="4" width="4" x="86" y="102"/>
<rect fill="black" height="4" width="4" x="90" y="102"/>
<rect fill="black" height="4" width="4" x="106" y="102"/>
<rect fill="black" height="4" width="4" x="110" y="102"/>
<rect fill="black" height="4" width="4" x="10" y="106"/>
<rect fill="black" height="4" width="4" x="14" y="106"/>
<rect fill="black" height="4" width="4" x="18" y="106"/>
<rect fill="black" height="4" width="4" x="26" y="106"/>
<rect fill="black" height="4" width="4" x="42" y="106"/>
<rect fill="black" height="4" width="4" x="46" y="106"/>
<rect fill="black" height="4" width="4" x="50" y="106"/>
<rect fill="black" height="4" width="4" x="54" y="106"/>
<rect fill="black" height="4" width="4" x="58" y="106"/>
<rect fill="black" height="4" width="4" x="70" y="106"/>
<rect fill="black" height="4" width="4" x="74" y="106"/>
<rect fill="black" height="4" width="4" x="78" y="106"/>
<rect fill="black" height="4" width="4" x="82" y="106"/>
<rect fill="black" height="4" width="4" x="90" y="106"/>
<rect fill="black" height="4" width="4" x="94" y="106"/>
<rect fill="black" height="4" width="4" x="102" y="106"/>
<rect fill="black" height="4" width="4" x="106" y="106"/>
<rect fill="black" height="4" width="4" x="110" y="106"/>
<rect fill="black" height="4" width="4" x="14" y="110"/>
<rect fill="black" height="4" width="4" x="18" y="110"/>
<rect fill="black" height="4" width="4" x="26" y="110"/>
<rect fill="black" height="4" width="4" x="30" y="110"/>
<rect fill="black" height="4" width="4" x="38" y="110"/>
<rect fill="black" height="4" width="4" x="42" y="110"/>
<rect fill="black" height="4" width="4" x="54" y="110"/>
<rect fill="black" height="4" width="4" x="62" y="110"/>
<rect fill="black" height="4" width="4" x="94" y="110"/>
<rect fill="black" height="4" width="4" x="110" y="110"/>
<rect fill="black" height="4" width="4" x="10" y="114"/>
<rect fill="black" height="4" width="4" x="74" y="114"/>
<text fill="black" font-family="monospace" font-size="10" text-anchor="middle" x="64" y="133">
TKT:A12345|FROM:NYC Penn Station|TO:Boston South|DATE:2024-01-15|TIME:14:30|SEAT:12A|PRICE:89.50
</text>
</svg>