<svg height="100" viewBox="0 0 176 100" width="176" xmlns="http://www.w3.org/2000/svg">
<rect fill="white" height="100%" width="100%"/>
<rect fill="black" height="60" width="2" x="10" y="10"/>
<rect fill="black" height="60" width="2" x="12" y="10"/>
<rect fill="black" height="60" width="2" x="16" y="10"/>
<rect fill="black" height="60" width="2" x="22" y="10"/>
<rect fill="black" height="60" width="2" x="24" y="10"/>
<rect fill="black" height="60" width="2" x="28" y="10"/>
<rect fill="black" height="60" width="2" x="34" y="10"/>
<rect fill="black" height="60" width="2" x="36" y="10"/>
<rect fill="black" height="60" width="2" x="42" y="10"/>
<rect fill="black" height="60" width="2" x="44" y="10"/>
<rect fill="black" height="60" width="2" x="46" y="10"/>
<rect fill="black" height="60" width="2" x="48" y="10"/>
<rect fill="black" height="60" width="2" x="50" y="10"/>
<rect fill="black" height="60" width="2" x="56" y="10"/>
<rect fill="black" height="60" width="2" x="58" y="10"/>
<rect fill="black" height="60" width="2" x="60" y="10"/>
<rect fill="black" height="60" width="2" x="62" y="10"/>
<rect fill="black" height="60" width="2" x="70" y="10"/>
<rect fill="black" height="60" width="2" x="72" y="10"/>
<rect fill="black" height="60" width="2" x="76" y="10"/>
<rect fill="black" height="60" width="2" x="78" y="10"/>
<rect fill="black" height="60" width="2" x="84" y="10"/>
<rect fill="black" height="60" width="2" x="86" y="10"/>
<rect fill="black" height="60" width="2" x="88" y="10"/>
<rect fill="black" height="60" width="2" x="90" y="10"/>
<rect fill="black" height="60" width="2" x="92" y="10"/>
<rect fill="black" height="60" width="2" x="98" y="10"/>
<rect fill="black" height="60" width="2" x="100" y="10"/>
<rect fill="black" height="60" width="2" x="106" y="10"/>
<rect fill="black" height="60" width="2" x="108" y="10"/>
<rect fill="black" height="60" width="2" x="110" y="10"/>
<rect fill="black" height="60" width="2" x="118" y="10"/>
<rect fill="black" height="60" width="2" x="120" y="10"/>
<rect fill="black" height="60" width="2" x="126" y="10"/>
<rect fill="black" height="60" width="2" x="128" y="10"/>
<rect fill="black" height="60" width="2" x="130" y="10"/>
<rect fill="black" height="60" width="2" x="132" y="10"/>
<rect fill="black" height="60" width="2" x="134" y="10"/>
<rect fill="black" height="60" width="2" x="140" y="10"/>
<rect fill="black" height="60" width="2" x="142" y="10"/>
<rect fill="black" height="60" width="2" x="144" y="10"/>
<rect fill="black" height="60" width="2" x="146" y="10"/>
<rect fill="black" height="60" width="2" x="152" y="10"/>
<rect fill="black" height="60" width="2" x="156" y="10"/>
<rect fill="black" height="60" width="2" x="158" y="10"/>
<rect fill="black" height="60" width="2" x="164" y="10"/>
<text fill="black" font-family="monospace" font-size="12" text-anchor="middle" x="88" y="85">
HELLO123
</text>
</svg>