<svg height="104" viewBox="0 0 84 104" width="84" xmlns="http://www.w3.org/2000/svg">
<rect fill="white" height="100%" width="100%"/>
<rect fill="black" height="4" width="4" x="10" y="10"/>
<rect fill="black" height="4" width="4" x="18" y="10"/>
<rect fill="black" height="4" width="4" x="26" y="10"/>
<rect fill="black" height="4" width="4" x="34" y="10"/>
<rect fill="black" height="4" width="4" x="42" y="10"/>
<rect fill="black" height="4" width="4" x="50" y="10"/>
<rect fill="black" height="4" width="4" x="58" y="10"/>
<rect fill="black" height="4" width="4" x="66" y="10"/>
<rect fill="black" height="4" width="4" x="10" y="14"/>
<rect fill="black" height="4" width="4" x="18" y="14"/>
<rect fill="black" height="4" width="4" x="38" y="14"/>
<rect fill="black" height="4" width="4" x="42" y="14"/>
<rect fill="black" height="4" width="4" x="58" y="14"/>
<rect fill="black" height="4" width="4" x="62" y="14"/>
<rect fill="black" height="4" width="4" x="70" y="14"/>
<rect fill="black" height="4" width="4" x="10" y="18"/>
<rect fill="black" height="4" width="4" x="30" y="18"/>
<rect fill="black" height="4" width="4" x="34" y="18"/>
<rect fill="black" height="4" width="4" x="38" y="18"/>
<rect fill="black" height="4" width="4" x="42" y="18"/>
<rect fill="black" height="4" width="4" x="46" y="18"/>
<rect fill="black" height="4" width="4" x="10" y="22"/>
<rect fill="black" height="4" width="4" x="14" y="22"/>
<rect fill="black" height="4" width="4" x="26" y="22"/>
<rect fill="black" height="4" width="4" x="38" y="22"/>
<rect fill="black" height="4" width="4" x="46" y="22"/>
<rect fill="black" height="4" width="4" x="50" y="22"/>
<rect fill="black" height="4" width="4" x="70" y="22"/>
<rect fill="black" height="4" width="4" x="10" y="26"/>
<rect fill="black" height="4" width="4" x="18" y="26"/>
<rect fill="black" height="4" width="4" x="38" y="26"/>
<rect fill="black" height="4" width="4" x="46" y="26"/>
<rect fill="black" height="4" width="4" x="58" y="26"/>
<rect fill="black" height="4" width="4" x="10" y="30"/>
<rect fill="black" height="4" width="4" x="14" y="30"/>
<rect fill="black" height="4" width="4" x="26" y="30"/>
<rect fill="black" height="4" width="4" x="34" y="30"/>
<rect fill="black" height="4" width="4" x="38" y="30"/>
<rect fill="black" height="4" width="4" x="54" y="30"/>
<rect fill="black" height="4" width="4" x="62" y="30"/>
<rect fill="black" height="4" width="4" x="66" y="30"/>
<rect fill="black" height="4" width="4" x="70" y="30"/>
<rect fill="black" height="4" width="4" x="10" y="34"/>
<rect fill="black" height="4" width="4" x="14" y="34"/>
<rect fill="black" height="4" width="4" x="46" y="34"/>
<rect fill="black" height="4" width="4" x="58" y="34"/>
<rect fill="black" height="4" width="4" x="10" y="38"/>
<rect fill="black" height="4" width="4" x="22" y="38"/>
<rect fill="black" height="4" width="4" x="30" y="38"/>
<rect fill="black" height="4" width="4" x="38" y="38"/>
<rect fill="black" height="4" width="4" x="42" y="38"/>
<rect fill="black" height="4" width="4" x="70" y="38"/>
<rect fill="black" height="4" width="4" x="10" y="42"/>
<rect fill="black" height="4" width="4" x="22" y="42"/>
<rect fill="black" height="4" width="4" x="26" y="42"/>
<rect fill="black" height="4" width="4" x="30" y="42"/>
<rect fill="black" height="4" width="4" x="34" y="42"/>
<rect fill="black" height="4" width="4" x="42" y="42"/>
<rect fill="black" height="4" width="4" x="46" y="42"/>
<rect fill="black" height="4" width="4" x="54" y="42"/>
<rect fill="black" height="4" width="4" x="58" y="42"/>
<rect fill="black" height="4" width="4" x="10" y="46"/>
<rect fill="black" height="4" width="4" x="18" y="46"/>
<rect fill="black" height="4" width="4" x="26" y="46"/>
<rect fill="black" height="4" width="4" x="30" y="46"/>
<rect fill="black" height="4" width="4" x="42" y="46"/>
<rect fill="black" height="4" width="4" x="46" y="46"/>
<rect fill="black" height="4" width="4" x="50" y="46"/>
<rect fill="black" height="4" width="4" x="70" y="46"/>
<rect fill="black" height="4" width="4" x="10" y="50"/>
<rect fill="black" height="4" width="4" x="30" y="50"/>
<rect fill="black" height="4" width="4" x="38" y="50"/>
<rect fill="black" height="4" width="4" x="50" y="50"/>
<rect fill="black" height="4" width="4" x="62" y="50"/>
<rect fill="black" height="4" width="4" x="10" y="54"/>
<rect fill="black" height="4" width="4" x="18" y="54"/>
<rect fill="black" height="4" width="4" x="46" y="54"/>
<rect fill="black" height="4" width="4" x="50" y="54"/>
<rect fill="black" height="4" width="4" x="54" y="54"/>
<rect fill="black" height="4" width="4" x="58" y="54"/>
<rect fill="black" height="4" width="4" x="70" y="54"/>
<rect fill="black" height="4" width="4" x="10" y="58"/>
<rect fill="black" height="4" width="4" x="14" y="58"/>
<rect fill="black" height="4" width="4" x="18" y="58"/>
<rect fill="black" height="4" width="4" x="26" y="58"/>
<rect fill="black" height="4" width="4" x="38" y="58"/>
<rect fill="black" height="4" width="4" x="46" y="58"/>
<rect fill="black" height="4" width="4" x="50" y="58"/>
<rect fill="black" height="4" width="4" x="10" y="62"/>
<rect fill="black" height="4" width="4" x="14" y="62"/>
<rect fill="black" height="4" width="4" x="18" y="62"/>
<rect fill="black" height="4" width="4" x="22" y="62"/>
<rect fill="black" height="4" width="4" x="30" y="62"/>
<rect fill="black" height="4" width="4" x="58" y="62"/>
<rect fill="black" height="4" width="4" x="62" y="62"/>
<rect fill="black" height="4" width="4" x="70" y="62"/>
<rect fill="black" height="4" width="4" x="10" y="66"/>
<rect fill="black" height="4" width="4" x="14" y="66"/>
<rect fill="black" height="4" width="4" x="22" y="66"/>
<rect fill="black" height="4" width="4" x="26" y="66"/>
<rect fill="black" height="4" width="4" x="30" y="66"/>
<rect fill="black" height="4" width="4" x="46" y="66"/>
<rect fill="black" height="4" width="4" x="54" y="66"/>
<rect fill="black" height="4" width="4" x="10" y="70"/>
<rect fill="black" height="4" width="4" x="14" y="70"/>
<rect fill="black" height="4" width="4" x="18" y="70"/>
<rect fill="black" height="4" width="4" x="22" y="70"/>
<rect fill="black" height="4" width="4" x="26" y="70"/>
<rect fill="black" height="4" width="4" x="30" y="70"/>
<rect fill="black" height="4" width="4" x="34" y="70"/>
<rect fill="black" height="4" width="4" x="38" y="70"/>
<rect fill="black" height="4" width="4" x="42" y="70"/>
<rect fill="black" height="4" width="4" x="46" y="70"/>
<rect fill="black" height="4" width="4" x="50" y="70"/>
<rect fill="black" height="4" width="4" x="54" y="70"/>
<rect fill="black" height="4" width="4" x="58" y="70"/>
<rect fill="black" height="4" width="4" x="62" y="70"/>
<rect fill="black" height="4" width="4" x="66" y="70"/>
<rect fill="black" height="4" width="4" x="70" y="70"/>
<text fill="black" font-family="monospace" font-size="10" text-anchor="middle" x="42" y="89">
010123456789012815240101
</text>
</svg>