<svg height="144" viewBox="0 0 124 144" width="124" xmlns="http://www.w3.org/2000/svg">
<rect fill="white" height="100%" width="100%"/>
<rect fill="black" height="4" width="4" x="10" y="10"/>
<rect fill="black" height="4" width="4" x="18" y="10"/>
<rect fill="black" height="4" width="4" x="26" y="10"/>
<rect fill="black" height="4" width="4" x="34" y="10"/>
<rect fill="black" height="4" width="4" x="42" y="10"/>
<rect fill="black" height="4" width="4" x="50" y="10"/>
<rect fill="black" height="4" width="4" x="58" y="10"/>
<rect fill="black" height="4" width="4" x="66" y="10"/>
<rect fill="black" height="4" width="4" x="74" y="10"/>
<rect fill="black" height="4" width="4" x="82" y="10"/>
<rect fill="black" height="4" width="4" x="90" y="10"/>
<rect fill="black" height="4" width="4" x="98" y="10"/>
<rect fill="black" height="4" width="4" x="106" y="10"/>
<rect fill="black" height="4" width="4" x="10" y="14"/>
<rect fill="black" height="4" width="4" x="22" y="14"/>
<rect fill="black" height="4" width="4" x="26" y="14"/>
<rect fill="black" height="4" width="4" x="58" y="14"/>
<rect fill="black" height="4" width="4" x="62" y="14"/>
<rect fill="black" height="4" width="4" x="70" y="14"/>
<rect fill="black" height="4" width="4" x="78" y="14"/>
<rect fill="black" height="4" width="4" x="82" y="14"/>
<rect fill="black" height="4" width="4" x="86" y="14"/>
<rect fill="black" height="4" width="4" x="90" y="14"/>
<rect fill="black" height="4" width="4" x="102" y="14"/>
<rect fill="black" height="4" width="4" x="110" y="14"/>
<rect fill="black" height="4" width="4" x="10" y="18"/>
<rect fill="black" height="4" width="4" x="14" y="18"/>
<rect fill="black" height="4" width="4" x="18" y="18"/>
<rect fill="black" height="4" width="4" x="26" y="18"/>
<rect fill="black" height="4" width="4" x="34" y="18"/>
<rect fill="black" height="4" width="4" x="38" y="18"/>
<rect fill="black" height="4" width="4" x="46" y="18"/>
<rect fill="black" height="4" width="4" x="50" y="18"/>
<rect fill="black" height="4" width="4" x="62" y="18"/>
<rect fill="black" height="4" width="4" x="86" y="18"/>
<rect fill="black" height="4" width="4" x="10" y="22"/>
<rect fill="black" height="4" width="4" x="18" y="22"/>
<rect fill="black" height="4" width="4" x="22" y="22"/>
<rect fill="black" height="4" width="4" x="38" y="22"/>
<rect fill="black" height="4" width="4" x="46" y="22"/>
<rect fill="black" height="4" width="4" x="54" y="22"/>
<rect fill="black" height="4" width="4" x="74" y="22"/>
<rect fill="black" height="4" width="4" x="94" y="22"/>
<rect fill="black" height="4" width="4" x="102" y="22"/>
<rect fill="black" height="4" width="4" x="106" y="22"/>
<rect fill="black" height="4" width="4" x="110" y="22"/>
<rect fill="black" height="4" width="4" x="10" y="26"/>
<rect fill="black" height="4" width="4" x="14" y="26"/>
<rect fill="black" height="4" width="4" x="22" y="26"/>
<rect fill="black" height="4" width="4" x="26" y="26"/>
<rect fill="black" height="4" width="4" x="46" y="26"/>
<rect fill="black" height="4" width="4" x="50" y="26"/>
<rect fill="black" height="4" width="4" x="58" y="26"/>
<rect fill="black" height="4" width="4" x="62" y="26"/>
<rect fill="black" height="4" width="4" x="74" y="26"/>
<rect fill="black" height="4" width="4" x="82" y="26"/>
<rect fill="black" height="4" width="4" x="90" y="26"/>
<rect fill="black" height="4" width="4" x="94" y="26"/>
<rect fill="black" height="4" width="4" x="98" y="26"/>
<rect fill="black" height="4" width="4" x="102" y="26"/>
<rect fill="black" height="4" width="4" x="10" y="30"/>
<rect fill="black" height="4" width="4" x="14" y="30"/>
<rect fill="black" height="4" width="4" x="18" y="30"/>
<rect fill="black" height="4" width="4" x="22" y="30"/>
<rect fill="black" height="4" width="4" x="26" y="30"/>
<rect fill="black" height="4" width="4" x="34" y="30"/>
<rect fill="black" height="4" width="4" x="38" y="30"/>
<rect fill="black" height="4" width="4" x="42" y="30"/>
<rect fill="black" height="4" width="4" x="54" y="30"/>
<rect fill="black" height="4" width="4" x="58" y="30"/>
<rect fill="black" height="4" width="4" x="62" y="30"/>
<rect fill="black" height="4" width="4" x="82" y="30"/>
<rect fill="black" height="4" width="4" x="90" y="30"/>
<rect fill="black" height="4" width="4" x="102" y="30"/>
<rect fill="black" height="4" width="4" x="106" y="30"/>
<rect fill="black" height="4" width="4" x="110" y="30"/>
<rect fill="black" height="4" width="4" x="10" y="34"/>
<rect fill="black" height="4" width="4" x="18" y="34"/>
<rect fill="black" height="4" width="4" x="26" y="34"/>
<rect fill="black" height="4" width="4" x="30" y="34"/>
<rect fill="black" height="4" width="4" x="34" y="34"/>
<rect fill="black" height="4" width="4" x="38" y="34"/>
<rect fill="black" height="4" width="4" x="42" y="34"/>
<rect fill="black" height="4" width="4" x="58" y="34"/>
<rect fill="black" height="4" width="4" x="66" y="34"/>
<rect fill="black" height="4" width="4" x="74" y="34"/>
<rect fill="black" height="4" width="4" x="78" y="34"/>
<rect fill="black" height="4" width="4" x="90" y="34"/>
<rect fill="black" height="4" width="4" x="98" y="34"/>
<rect fill="black" height="4" width="4" x="102" y="34"/>
<rect fill="black" height="4" width="4" x="10" y="38"/>
<rect fill="black" height="4" width="4" x="26" y="38"/>
<rect fill="black" height="4" width="4" x="30" y="38"/>
<rect fill="black" height="4" width="4" x="42" y="38"/>
<rect fill="black" height="4" width="4" x="46" y="38"/>
<rect fill="black" height="4" width="4" x="50" y="38"/>
<rect fill="black" height="4" width="4" x="58" y="38"/>
<rect fill="black" height="4" width="4" x="70" y="38"/>
<rect fill="black" height="4" width="4" x="94" y="38"/>
<rect fill="black" height="4" width="4" x="110" y="38"/>
<rect fill="black" height="4" width="4" x="10" y="42"/>
<rect fill="black" height="4" width="4" x="26" y="42"/>
<rect fill="black" height="4" width="4" x="42" y="42"/>
<rect fill="black" height="4" width="4" x="46" y="42"/>
<rect fill="black" height="4" width="4" x="50" y="42"/>
<rect fill="black" height="4" width="4" x="54" y="42"/>
<rect fill="black" height="4" width="4" x="62" y="42"/>
<rect fill="black" height="4" width="4" x="66" y="42"/>
<rect fill="black" height="4" width="4" x="86" y="42"/>
<rect fill="black" height="4" width="4" x="94" y="42"/>
<rect fill="black" height="4" width="4" x="98" y="42"/>
<rect fill="black" height="4" width="4" x="106" y="42"/>
<rect fill="black" height="4" width="4" x="10" y="46"/>
<rect fill="black" height="4" width="4" x="30" y="46"/>
<rect fill="black" height="4" width="4" x="42" y="46"/>
<rect fill="black" height="4" width="4" x="46" y="46"/>
<rect fill="black" height="4" width="4" x="62" y="46"/>
<rect fill="black" height="4" width="4" x="70" y="46"/>
<rect fill="black" height="4" width="4" x="74" y="46"/>
<rect fill="black" height="4" width="4" x="86" y="46"/>
<rect fill="black" height="4" width="4" x="102" y="46"/>
<rect fill="black" height="4" width="4" x="110" y="46"/>
<rect fill="black" height="4" width="4" x="10" y="50"/>
<rect fill="black" height="4" width="4" x="18" y="50"/>
<rect fill="black" height="4" width="4" x="30" y="50"/>
<rect fill="black" height="4" width="4" x="42" y="50"/>
<rect fill="black" height="4" width="4" x="46" y="50"/>
<rect fill="black" height="4" width="4" x="50" y="50"/>
<rect fill="black" height="4" width="4" x="58" y="50"/>
<rect fill="black" height="4" width="4" x="62" y="50"/>
<rect fill="black" height="4" width="4" x="66" y="50"/>
<rect fill="black" height="4" width="4" x="78" y="50"/>
<rect fill="black" height="4" width="4" x="94" y="50"/>
<rect fill="black" height="4" width="4" x="98" y="50"/>
<rect fill="black" height="4" width="4" x="106" y="50"/>
<rect fill="black" height="4" width="4" x="10" y="54"/>
<rect fill="black" height="4" width="4" x="22" y="54"/>
<rect fill="black" height="4" width="4" x="34" y="54"/>
<rect fill="black" height="4" width="4" x="42" y="54"/>
<rect fill="black" height="4" width="4" x="46" y="54"/>
<rect fill="black" height="4" width="4" x="50" y="54"/>
<rect fill="black" height="4" width="4" x="66" y="54"/>
<rect fill="black" height="4" width="4" x="74" y="54"/>
<rect fill="black" height="4" width="4" x="86" y="54"/>
<rect fill="black" height="4" width="4" x="90" y="54"/>
<rect fill="black" height="4" width="4" x="102" y="54"/>
<rect fill="black" height="4" width="4" x="110" y="54"/>
<rect fill="black" height="4" width="4" x="10" y="58"/>
<rect fill="black" height="4" width="4" x="14" y="58"/>
<rect fill="black" height="4" width="4" x="18" y="58"/>
<rect fill="black" height="4" width="4" x="22" y="58"/>
<rect fill="black" height="4" width="4" x="38" y="58"/>
<rect fill="black" height="4" width="4" x="50" y="58"/>
<rect fill="black" height="4" width="4" x="54" y="58"/>
<rect fill="black" height="4" width="4" x="58" y="58"/>
<rect fill="black" height="4" width="4" x="62" y="58"/>
<rect fill="black" height="4" width="4" x="66" y="58"/>
<rect fill="black" height="4" width="4" x="86" y="58"/>
<rect fill="black" height="4" width="4" x="102" y="58"/>
<rect fill="black" height="4" width="4" x="10" y="62"/>
<rect fill="black" height="4" width="4" x="18" y="62"/>
<rect fill="black" height="4" width="4" x="38" y="62"/>
<rect fill="black" height="4" width="4" x="50" y="62"/>
<rect fill="black" height="4" width="4" x="62" y="62"/>
<rect fill="black" height="4" width="4" x="66" y="62"/>
<rect fill="black" height="4" width="4" x="78" y="62"/>
<rect fill="black" height="4" width="4" x="82" y="62"/>
<rect fill="black" height="4" width="4" x="90" y="62"/>
<rect fill="black" height="4" width="4" x="98" y="62"/>
<rect fill="black" height="4" width="4" x="102" y="62"/>
<rect fill="black" height="4" width="4" x="110" y="62"/>
<rect fill="black" height="4" width="4" x="10" y="66"/>
<rect fill="black" height="4" width="4" x="14" y="66"/>
<rect fill="black" height="4" width="4" x="18" y="66"/>
<rect fill="black" height="4" width="4" x="26" y="66"/>
<rect fill="black" height="4" width="4" x="30" y="66"/>
<rect fill="black" height="4" width="4" x="34" y="66"/>
<rect fill="black" height="4" width="4" x="54" y="66"/>
<rect fill="black" height="4" width="4" x="66" y="66"/>
<rect fill="black" height="4" width="4" x="70" y="66"/>
<rect fill="black" height="4" width="4" x="86" y="66"/>
<rect fill="black" height="4" width="4" x="94" y="66"/>
<rect fill="black" height="4" width="4" x="98" y="66"/>
<rect fill="black" height="4" width="4" x="102" y="66"/>
<rect fill="black" height="4" width="4" x="106" y="66"/>
<rect fill="black" height="4" width="4" x="10" y="70"/>
<rect fill="black" height="4" width="4" x="22" y="70"/>
<rect fill="black" height="4" width="4" x="26" y="70"/>
<rect fill="black" height="4" width="4" x="38" y="70"/>
<rect fill="black" height="4" width="4" x="66" y="70"/>
<rect fill="black" height="4" width="4" x="70" y="70"/>
<rect fill="black" height="4" width="4" x="78" y="70"/>
<rect fill="black" height="4" width="4" x="82" y="70"/>
<rect fill="black" height="4" width="4" x="90" y="70"/>
<rect fill="black" height="4" width="4" x="94" y="70"/>
<rect fill="black" height="4" width="4" x="110" y="70"/>
<rect fill="black" height="4" width="4" x="10" y="74"/>
<rect fill="black" height="4" width="4" x="14" y="74"/>
<rect fill="black" height="4" width="4" x="30" y="74"/>
<rect fill="black" height="4" width="4" x="38" y="74"/>
<rect fill="black" height="4" width="4" x="54" y="74"/>
<rect fill="black" height="4" width="4" x="58" y="74"/>
<rect fill="black" height="4" width="4" x="66" y="74"/>
<rect fill="black" height="4" width="4" x="74" y="74"/>
<rect fill="black" height="4" width="4" x="78" y="74"/>
<rect fill="black" height="4" width="4" x="82" y="74"/>
<rect fill="black" height="4" width="4" x="86" y="74"/>
<rect fill="black" height="4" width="4" x="90" y="74"/>
<rect fill="black" height="4" width="4" x="94" y="74"/>
<rect fill="black" height="4" width="4" x="106" y="74"/>
<rect fill="black" height="4" width="4" x="10" y="78"/>
<rect fill="black" height="4" width="4" x="14" y="78"/>
<rect fill="black" height="4" width="4" x="18" y="78"/>
<rect fill="black" height="4" width="4" x="38" y="78"/>
<rect fill="black" height="4" width="4" x="42" y="78"/>
<rect fill="black" height="4" width="4" x="46" y="78"/>
<rect fill="black" height="4" width="4" x="50" y="78"/>
<rect fill="black" height="4" width="4" x="54" y="78"/>
<rect fill="black" height="4" width="4" x="70" y="78"/>
<rect fill="black" height="4" width="4" x="74" y="78"/>
<rect fill="black" height="4" width="4" x="78" y="78"/>
<rect fill="black" height="4" width="4" x="82" y="78"/>
<rect fill="black" height="4" width="4" x="86" y="78"/>
<rect fill="black" height="4" width="4" x="98" y="78"/>
<rect fill="black" height="4" width="4" x="102" y="78"/>
<rect fill="black" height="4" width="4" x="106" y="78"/>
<rect fill="black" height="4" width="4" x="110" y="78"/>
<rect fill="black" height="4" width="4" x="10" y="82"/>
<rect fill="black" height="4" width="4" x="18" y="82"/>
<rect fill="black" height="4" width="4" x="30" y="82"/>
<rect fill="black" height="4" width="4" x="38" y="82"/>
<rect fill="black" height="4" width="4" x="50" y="82"/>
<rect fill="black" height="4" width="4" x="58" y="82"/>
<rect fill="black" height="4" width="4" x="66" y="82"/>
<rect fill="black" height="4" width="4" x="70" y="82"/>
<rect fill="black" height="4" width="4" x="74" y="82"/>
<rect fill="black" height="4" width="4" x="78" y="82"/>
<rect fill="black" height="4" width="4" x="82" y="82"/>
<rect fill="black" height="4" width="4" x="86" y="82"/>
<rect fill="black" height="4" width="4" x="94" y="82"/>
<rect fill="black" height="4" width="4" x="102" y="82"/>
<rect fill="black" height="4" width="4" x="10" y="86"/>
<rect fill="black" height="4" width="4" x="18" y="86"/>
<rect fill="black" height="4" width="4" x="26" y="86"/>
<rect fill="black" height="4" width="4" x="30" y="86"/>
<rect fill="black" height="4" width="4" x="38" y="86"/>
<rect fill="black" height="4" width="4" x="42" y="86"/>
<rect fill="black" height="4" width="4" x="46" y="86"/>
<rect fill="black" height="4" width="4" x="50" y="86"/>
<rect fill="black" height="4" width="4" x="58" y="86"/>
<rect fill="black" height="4" width="4" x="62" y="86"/>
<rect fill="black" height="4" width="4" x="66" y="86"/>
<rect fill="black" height="4" width="4" x="70" y="86"/>
<rect fill="black" height="4" width="4" x="82" y="86"/>
<rect fill="black" height="4" width="4" x="86" y="86"/>
<rect fill="black" height="4" width="4" x="90" y="86"/>
<rect fill="black" height="4" width="4" x="94" y="86"/>
<rect fill="black" height="4" width="4" x="98" y="86"/>
<rect fill="black" height="4" width="4" x="106" y="86"/>
<rect fill="black" height="4" width="4" x="110" y="86"/>
<rect fill="black" height="4" width="4" x="10" y="90"/>
<rect fill="black" height="4" width="4" x="14" y="90"/>
<rect fill="black" height="4" width="4" x="18" y="90"/>
<rect fill="black" height="4" width="4" x="26" y="90"/>
<rect fill="black" height="4" width="4" x="30" y="90"/>
<rect fill="black" height="4" width="4" x="34" y="90"/>
<rect fill="black" height="4" width="4" x="58" y="90"/>
<rect fill="black" height="4" width="4" x="66" y="90"/>
<rect fill="black" height="4" width="4" x="70" y="90"/>
<rect fill="black" height="4" width="4" x="78" y="90"/>
<rect fill="black" height="4" width="4" x="82" y="90"/>
<rect fill="black" height="4" width="4" x="86" y="90"/>
<rect fill="black" height="4" width="4" x="90" y="90"/>
<rect fill="black" height="4" width="4" x="94" y="90"/>
<rect fill="black" height="4" width="4" x="98" y="90"/>
<rect fill="black" height="4" width="4" x="102" y="90"/>
<rect fill="black" height="4" width="4" x="106" y="90"/>
<rect fill="black" height="4" width="4" x="10" y="94"/>
<rect fill="black" height="4" width="4" x="18" y="94"/>
<rect fill="black" height="4" width="4" x="30" y="94"/>
<rect fill="black" height="4" width="4" x="42" y="94"/>
<rect fill="black" height="4" width="4" x="62" y="94"/>
<rect fill="black" height="4" width="4" x="66" y="94"/>
<rect fill="black" height="4" width="4" x="70" y="94"/>
<rect fill="black" height="4" width="4" x="74" y="94"/>
<rect fill="black" height="4" width="4" x="78" y="94"/>
<rect fill="black" height="4" width="4" x="82" y="94"/>
<rect fill="black" height="4" width="4" x="86" y="94"/>
<rect fill="black" height="4" width="4" x="90" y="94"/>
<rect fill="black" height="4" width="4" x="98" y="94"/>
<rect fill="black" height="4" width="4" x="110" y="94"/>
<rect fill="black" height="4" width="4" x="10" y="98"/>
<rect fill="black" height="4" width="4" x="38" y="98"/>
<rect fill="black" height="4" width="4" x="46" y="98"/>
<rect fill="black" height="4" width="4" x="54" y="98"/>
<rect fill="black" height="4" width="4" x="74" y="98"/>
<rect fill="black" height="4" width="4" x="78" y="98"/>
<rect fill="black" height="4" width="4" x="82" y="98"/>
<rect fill="black" height="4" width="4" x="86" y="98"/>
<rect fill="black" height="4" width="4" x="94" y="98"/>
<rect fill="black" height="4" width="4" x="102" y="98"/>
<rect fill="black" height="4" width="4" x="106" y="98"/>
<rect fill="black" height="4" width="4" x="10" y="102"/>
<rect fill="black" height="4" width="4" x="34" y="102"/>
<rect fill="black" height="4" width="4" x="38" y="102"/>
<rect fill="black" height="4" width="4" x="46" y="102"/>
<rect fill="black" height="4" width="4" x="58" y="102"/>
<rect fill="black" height="4" width="4" x="90" y="102"/>
<rect fill="black" height="4" width="4" x="98" y="102"/>
<rect fill="black" height="4" width="4" x="102" y="102"/>
<rect fill="black" height="4" width="4" x="110" y="102"/>
<rect fill="black" height="4" width="4" x="10" y="106"/>
<rect fill="black" height="4" width="4" x="22" y="106"/>
<rect fill="black" height="4" width="4" x="46" y="106"/>
<rect fill="black" height="4" width="4" x="50" y="106"/>
<rect fill="black" height="4" width="4" x="54" y="106"/>
<rect fill="black" height="4" width="4" x="86" y="106"/>
<rect fill="black" height="4" width="4" x="94" y="106"/>
<rect fill="black" height="4" width="4" x="98" y="106"/>
<rect fill="black" height="4" width="4" x="10" y="110"/>
<rect fill="black" height="4" width="4" x="14" y="110"/>
<rect fill="black" height="4" width="4" x="18" y="110"/>
<rect fill="black" height="4" width="4" x="22" y="110"/>
<rect fill="black" height="4" width="4" x="26" y="110"/>
<rect fill="black" height="4" width="4" x="30" y="110"/>
<rect fill="black" height="4" width="4" x="34" y="110"/>
<rect fill="black" height="4" width="4" x="38" y="110"/>
<rect fill="black" height="4" width="4" x="42" y="110"/>
<rect fill="black" height="4" width="4" x="46" y="110"/>
<rect fill="black" height="4" width="4" x="50" y="110"/>
<rect fill="black" height="4" width="4" x="54" y="110"/>
<rect fill="black" height="4" width="4" x="58" y="110"/>
<rect fill="black" height="4" width="4" x="62" y="110"/>
<rect fill="black" height="4" width="4" x="66" y="110"/>
<rect fill="black" height="4" width="4" x="70" y="110"/>
<rect fill="black" height="4" width="4" x="74" y="110"/>
<rect fill="black" height="4" width="4" x="78" y="110"/>
<rect fill="black" height="4" width="4" x="82" y="110"/>
<rect fill="black" height="4" width="4" x="86" y="110"/>
<rect fill="black" height="4" width="4" x="90" y="110"/>
<rect fill="black" height="4" width="4" x="94" y="110"/>
<rect fill="black" height="4" width="4" x="98" y="110"/>
<rect fill="black" height="4" width="4" x="102" y="110"/>
<rect fill="black" height="4" width="4" x="106" y="110"/>
<rect fill="black" height="4" width="4" x="110" y="110"/>
<text fill="black" font-family="monospace" font-size="10" text-anchor="middle" x="62" y="129">
Olá! 你好! مرحبا! Здравствуйте! 🇧🇷🇨🇳🇸🇦🇷🇺
</text>
</svg>