<svg height="88" viewBox="0 0 564 88" width="564" xmlns="http://www.w3.org/2000/svg">
<rect fill="white" height="100%" width="100%"/>
<rect fill="black" height="4" width="4" x="10" y="10"/>
<rect fill="black" height="4" width="4" x="18" y="10"/>
<rect fill="black" height="4" width="4" x="26" y="10"/>
<rect fill="black" height="4" width="4" x="34" y="10"/>
<rect fill="black" height="4" width="4" x="46" y="10"/>
<rect fill="black" height="4" width="4" x="62" y="10"/>
<rect fill="black" height="4" width="4" x="78" y="10"/>
<rect fill="black" height="4" width="4" x="86" y="10"/>
<rect fill="black" height="4" width="4" x="98" y="10"/>
<rect fill="black" height="4" width="4" x="110" y="10"/>
<rect fill="black" height="4" width="4" x="122" y="10"/>
<rect fill="black" height="4" width="4" x="134" y="10"/>
<rect fill="black" height="4" width="4" x="142" y="10"/>
<rect fill="black" height="4" width="4" x="150" y="10"/>
<rect fill="black" height="4" width="4" x="158" y="10"/>
<rect fill="black" height="4" width="4" x="162" y="10"/>
<rect fill="black" height="4" width="4" x="174" y="10"/>
<rect fill="black" height="4" width="4" x="190" y="10"/>
<rect fill="black" height="4" width="4" x="198" y="10"/>
<rect fill="black" height="4" width="4" x="206" y="10"/>
<rect fill="black" height="4" width="4" x="214" y="10"/>
<rect fill="black" height="4" width="4" x="226" y="10"/>
<rect fill="black" height="4" width="4" x="242" y="10"/>
<rect fill="black" height="4" width="4" x="270" y="10"/>
<rect fill="black" height="4" width="4" x="282" y="10"/>
<rect fill="black" height="4" width="4" x="286" y="10"/>
<rect fill="black" height="4" width="4" x="302" y="10"/>
<rect fill="black" height="4" width="4" x="314" y="10"/>
<rect fill="black" height="4" width="4" x="326" y="10"/>
<rect fill="black" height="4" width="4" x="334" y="10"/>
<rect fill="black" height="4" width="4" x="354" y="10"/>
<rect fill="black" height="4" width="4" x="358" y="10"/>
<rect fill="black" height="4" width="4" x="366" y="10"/>
<rect fill="black" height="4" width="4" x="382" y="10"/>
<rect fill="black" height="4" width="4" x="390" y="10"/>
<rect fill="black" height="4" width="4" x="398" y="10"/>
<rect fill="black" height="4" width="4" x="410" y="10"/>
<rect fill="black" height="4" width="4" x="414" y="10"/>
<rect fill="black" height="4" width="4" x="418" y="10"/>
<rect fill="black" height="4" width="4" x="430" y="10"/>
<rect fill="black" height="4" width="4" x="438" y="10"/>
<rect fill="black" height="4" width="4" x="450" y="10"/>
<rect fill="black" height="4" width="4" x="454" y="10"/>
<rect fill="black" height="4" width="4" x="462" y="10"/>
<rect fill="black" height="4" width="4" x="478" y="10"/>
<rect fill="black" height="4" width="4" x="486" y="10"/>
<rect fill="black" height="4" width="4" x="494" y="10"/>
<rect fill="black" height="4" width="4" x="498" y="10"/>
<rect fill="black" height="4" width="4" x="502" y="10"/>
<rect fill="black" height="4" width="4" x="506" y="10"/>
<rect fill="black" height="4" width="4" x="510" y="10"/>
<rect fill="black" height="4" width="4" x="526" y="10"/>
<rect fill="black" height="4" width="4" x="534" y="10"/>
<rect fill="black" height="4" width="4" x="542" y="10"/>
<rect fill="black" height="4" width="4" x="550" y="10"/>
<rect fill="black" height="4" width="4" x="14" y="14"/>
<rect fill="black" height="4" width="4" x="22" y="14"/>
<rect fill="black" height="4" width="4" x="30" y="14"/>
<rect fill="black" height="4" width="4" x="38" y="14"/>
<rect fill="black" height="4" width="4" x="46" y="14"/>
<rect fill="black" height="4" width="4" x="62" y="14"/>
<rect fill="black" height="4" width="4" x="78" y="14"/>
<rect fill="black" height="4" width="4" x="90" y="14"/>
<rect fill="black" height="4" width="4" x="94" y="14"/>
<rect fill="black" height="4" width="4" x="98" y="14"/>
<rect fill="black" height="4" width="4" x="102" y="14"/>
<rect fill="black" height="4" width="4" x="110" y="14"/>
<rect fill="black" height="4" width="4" x="126" y="14"/>
<rect fill="black" height="4" width="4" x="134" y="14"/>
<rect fill="black" height="4" width="4" x="146" y="14"/>
<rect fill="black" height="4" width="4" x="154" y="14"/>
<rect fill="black" height="4" width="4" x="158" y="14"/>
<rect fill="black" height="4" width="4" x="174" y="14"/>
<rect fill="black" height="4" width="4" x="186" y="14"/>
<rect fill="black" height="4" width="4" x="194" y="14"/>
<rect fill="black" height="4" width="4" x="206" y="14"/>
<rect fill="black" height="4" width="4" x="218" y="14"/>
<rect fill="black" height="4" width="4" x="222" y="14"/>
<rect fill="black" height="4" width="4" x="226" y="14"/>
<rect fill="black" height="4" width="4" x="230" y="14"/>
<rect fill="black" height="4" width="4" x="238" y="14"/>
<rect fill="black" height="4" width="4" x="250" y="14"/>
<rect fill="black" height="4" width="4" x="270" y="14"/>
<rect fill="black" height="4" width="4" x="282" y="14"/>
<rect fill="black" height="4" width="4" x="286" y="14"/>
<rect fill="black" height="4" width="4" x="290" y="14"/>
<rect fill="black" height="4" width="4" x="302" y="14"/>
<rect fill="black" height="4" width="4" x="306" y="14"/>
<rect fill="black" height="4" width="4" x="310" y="14"/>
<rect fill="black" height="4" width="4" x="314" y="14"/>
<rect fill="black" height="4" width="4" x="318" y="14"/>
<rect fill="black" height="4" width="4" x="334" y="14"/>
<rect fill="black" height="4" width="4" x="350" y="14"/>
<rect fill="black" height="4" width="4" x="366" y="14"/>
<rect fill="black" height="4" width="4" x="378" y="14"/>
<rect fill="black" height="4" width="4" x="382" y="14"/>
<rect fill="black" height="4" width="4" x="386" y="14"/>
<rect fill="black" height="4" width="4" x="390" y="14"/>
<rect fill="black" height="4" width="4" x="398" y="14"/>
<rect fill="black" height="4" width="4" x="418" y="14"/>
<rect fill="black" height="4" width="4" x="434" y="14"/>
<rect fill="black" height="4" width="4" x="438" y="14"/>
<rect fill="black" height="4" width="4" x="442" y="14"/>
<rect fill="black" height="4" width="4" x="450" y="14"/>
<rect fill="black" height="4" width="4" x="466" y="14"/>
<rect fill="black" height="4" width="4" x="470" y="14"/>
<rect fill="black" height="4" width="4" x="486" y="14"/>
<rect fill="black" height="4" width="4" x="498" y="14"/>
<rect fill="black" height="4" width="4" x="502" y="14"/>
<rect fill="black" height="4" width="4" x="506" y="14"/>
<rect fill="black" height="4" width="4" x="518" y="14"/>
<rect fill="black" height="4" width="4" x="522" y="14"/>
<rect fill="black" height="4" width="4" x="530" y="14"/>
<rect fill="black" height="4" width="4" x="538" y="14"/>
<rect fill="black" height="4" width="4" x="546" y="14"/>
<rect fill="black" height="4" width="4" x="10" y="18"/>
<rect fill="black" height="4" width="4" x="18" y="18"/>
<rect fill="black" height="4" width="4" x="26" y="18"/>
<rect fill="black" height="4" width="4" x="34" y="18"/>
<rect fill="black" height="4" width="4" x="50" y="18"/>
<rect fill="black" height="4" width="4" x="54" y="18"/>
<rect fill="black" height="4" width="4" x="58" y="18"/>
<rect fill="black" height="4" width="4" x="70" y="18"/>
<rect fill="black" height="4" width="4" x="82" y="18"/>
<rect fill="black" height="4" width="4" x="86" y="18"/>
<rect fill="black" height="4" width="4" x="114" y="18"/>
<rect fill="black" height="4" width="4" x="122" y="18"/>
<rect fill="black" height="4" width="4" x="126" y="18"/>
<rect fill="black" height="4" width="4" x="134" y="18"/>
<rect fill="black" height="4" width="4" x="146" y="18"/>
<rect fill="black" height="4" width="4" x="150" y="18"/>
<rect fill="black" height="4" width="4" x="178" y="18"/>
<rect fill="black" height="4" width="4" x="182" y="18"/>
<rect fill="black" height="4" width="4" x="198" y="18"/>
<rect fill="black" height="4" width="4" x="210" y="18"/>
<rect fill="black" height="4" width="4" x="218" y="18"/>
<rect fill="black" height="4" width="4" x="222" y="18"/>
<rect fill="black" height="4" width="4" x="230" y="18"/>
<rect fill="black" height="4" width="4" x="242" y="18"/>
<rect fill="black" height="4" width="4" x="246" y="18"/>
<rect fill="black" height="4" width="4" x="274" y="18"/>
<rect fill="black" height="4" width="4" x="278" y="18"/>
<rect fill="black" height="4" width="4" x="294" y="18"/>
<rect fill="black" height="4" width="4" x="302" y="18"/>
<rect fill="black" height="4" width="4" x="306" y="18"/>
<rect fill="black" height="4" width="4" x="310" y="18"/>
<rect fill="black" height="4" width="4" x="314" y="18"/>
<rect fill="black" height="4" width="4" x="318" y="18"/>
<rect fill="black" height="4" width="4" x="334" y="18"/>
<rect fill="black" height="4" width="4" x="350" y="18"/>
<rect fill="black" height="4" width="4" x="358" y="18"/>
<rect fill="black" height="4" width="4" x="366" y="18"/>
<rect fill="black" height="4" width="4" x="374" y="18"/>
<rect fill="black" height="4" width="4" x="378" y="18"/>
<rect fill="black" height="4" width="4" x="398" y="18"/>
<rect fill="black" height="4" width="4" x="406" y="18"/>
<rect fill="black" height="4" width="4" x="434" y="18"/>
<rect fill="black" height="4" width="4" x="438" y="18"/>
<rect fill="black" height="4" width="4" x="442" y="18"/>
<rect fill="black" height="4" width="4" x="450" y="18"/>
<rect fill="black" height="4" width="4" x="466" y="18"/>
<rect fill="black" height="4" width="4" x="470" y="18"/>
<rect fill="black" height="4" width="4" x="482" y="18"/>
<rect fill="black" height="4" width="4" x="498" y="18"/>
<rect fill="black" height="4" width="4" x="502" y="18"/>
<rect fill="black" height="4" width="4" x="526" y="18"/>
<rect fill="black" height="4" width="4" x="534" y="18"/>
<rect fill="black" height="4" width="4" x="542" y="18"/>
<rect fill="black" height="4" width="4" x="550" y="18"/>
<rect fill="black" height="4" width="4" x="14" y="22"/>
<rect fill="black" height="4" width="4" x="22" y="22"/>
<rect fill="black" height="4" width="4" x="30" y="22"/>
<rect fill="black" height="4" width="4" x="38" y="22"/>
<rect fill="black" height="4" width="4" x="50" y="22"/>
<rect fill="black" height="4" width="4" x="54" y="22"/>
<rect fill="black" height="4" width="4" x="66" y="22"/>
<rect fill="black" height="4" width="4" x="82" y="22"/>
<rect fill="black" height="4" width="4" x="86" y="22"/>
<rect fill="black" height="4" width="4" x="94" y="22"/>
<rect fill="black" height="4" width="4" x="102" y="22"/>
<rect fill="black" height="4" width="4" x="114" y="22"/>
<rect fill="black" height="4" width="4" x="122" y="22"/>
<rect fill="black" height="4" width="4" x="126" y="22"/>
<rect fill="black" height="4" width="4" x="134" y="22"/>
<rect fill="black" height="4" width="4" x="146" y="22"/>
<rect fill="black" height="4" width="4" x="150" y="22"/>
<rect fill="black" height="4" width="4" x="166" y="22"/>
<rect fill="black" height="4" width="4" x="178" y="22"/>
<rect fill="black" height="4" width="4" x="182" y="22"/>
<rect fill="black" height="4" width="4" x="194" y="22"/>
<rect fill="black" height="4" width="4" x="210" y="22"/>
<rect fill="black" height="4" width="4" x="218" y="22"/>
<rect fill="black" height="4" width="4" x="222" y="22"/>
<rect fill="black" height="4" width="4" x="230" y="22"/>
<rect fill="black" height="4" width="4" x="242" y="22"/>
<rect fill="black" height="4" width="4" x="246" y="22"/>
<rect fill="black" height="4" width="4" x="258" y="22"/>
<rect fill="black" height="4" width="4" x="262" y="22"/>
<rect fill="black" height="4" width="4" x="274" y="22"/>
<rect fill="black" height="4" width="4" x="278" y="22"/>
<rect fill="black" height="4" width="4" x="294" y="22"/>
<rect fill="black" height="4" width="4" x="302" y="22"/>
<rect fill="black" height="4" width="4" x="306" y="22"/>
<rect fill="black" height="4" width="4" x="310" y="22"/>
<rect fill="black" height="4" width="4" x="314" y="22"/>
<rect fill="black" height="4" width="4" x="318" y="22"/>
<rect fill="black" height="4" width="4" x="334" y="22"/>
<rect fill="black" height="4" width="4" x="354" y="22"/>
<rect fill="black" height="4" width="4" x="358" y="22"/>
<rect fill="black" height="4" width="4" x="366" y="22"/>
<rect fill="black" height="4" width="4" x="378" y="22"/>
<rect fill="black" height="4" width="4" x="382" y="22"/>
<rect fill="black" height="4" width="4" x="398" y="22"/>
<rect fill="black" height="4" width="4" x="422" y="22"/>
<rect fill="black" height="4" width="4" x="430" y="22"/>
<rect fill="black" height="4" width="4" x="438" y="22"/>
<rect fill="black" height="4" width="4" x="450" y="22"/>
<rect fill="black" height="4" width="4" x="454" y="22"/>
<rect fill="black" height="4" width="4" x="462" y="22"/>
<rect fill="black" height="4" width="4" x="470" y="22"/>
<rect fill="black" height="4" width="4" x="482" y="22"/>
<rect fill="black" height="4" width="4" x="486" y="22"/>
<rect fill="black" height="4" width="4" x="498" y="22"/>
<rect fill="black" height="4" width="4" x="502" y="22"/>
<rect fill="black" height="4" width="4" x="506" y="22"/>
<rect fill="black" height="4" width="4" x="514" y="22"/>
<rect fill="black" height="4" width="4" x="522" y="22"/>
<rect fill="black" height="4" width="4" x="530" y="22"/>
<rect fill="black" height="4" width="4" x="538" y="22"/>
<rect fill="black" height="4" width="4" x="546" y="22"/>
<rect fill="black" height="4" width="4" x="10" y="26"/>
<rect fill="black" height="4" width="4" x="18" y="26"/>
<rect fill="black" height="4" width="4" x="26" y="26"/>
<rect fill="black" height="4" width="4" x="34" y="26"/>
<rect fill="black" height="4" width="4" x="46" y="26"/>
<rect fill="black" height="4" width="4" x="70" y="26"/>
<rect fill="black" height="4" width="4" x="526" y="26"/>
<rect fill="black" height="4" width="4" x="534" y="26"/>
<rect fill="black" height="4" width="4" x="542" y="26"/>
<rect fill="black" height="4" width="4" x="550" y="26"/>
<rect fill="black" height="4" width="4" x="14" y="30"/>
<rect fill="black" height="4" width="4" x="22" y="30"/>
<rect fill="black" height="4" width="4" x="30" y="30"/>
<rect fill="black" height="4" width="4" x="38" y="30"/>
<rect fill="black" height="4" width="4" x="522" y="30"/>
<rect fill="black" height="4" width="4" x="530" y="30"/>
<rect fill="black" height="4" width="4" x="538" y="30"/>
<rect fill="black" height="4" width="4" x="546" y="30"/>
<rect fill="black" height="4" width="4" x="10" y="34"/>
<rect fill="black" height="4" width="4" x="18" y="34"/>
<rect fill="black" height="4" width="4" x="26" y="34"/>
<rect fill="black" height="4" width="4" x="34" y="34"/>
<rect fill="black" height="4" width="4" x="526" y="34"/>
<rect fill="black" height="4" width="4" x="534" y="34"/>
<rect fill="black" height="4" width="4" x="542" y="34"/>
<rect fill="black" height="4" width="4" x="550" y="34"/>
<rect fill="black" height="4" width="4" x="14" y="38"/>
<rect fill="black" height="4" width="4" x="22" y="38"/>
<rect fill="black" height="4" width="4" x="30" y="38"/>
<rect fill="black" height="4" width="4" x="38" y="38"/>
<rect fill="black" height="4" width="4" x="522" y="38"/>
<rect fill="black" height="4" width="4" x="530" y="38"/>
<rect fill="black" height="4" width="4" x="538" y="38"/>
<rect fill="black" height="4" width="4" x="546" y="38"/>
<rect fill="black" height="4" width="4" x="10" y="42"/>
<rect fill="black" height="4" width="4" x="18" y="42"/>
<rect fill="black" height="4" width="4" x="26" y="42"/>
<rect fill="black" height="4" width="4" x="34" y="42"/>
<rect fill="black" height="4" width="4" x="526" y="42"/>
<rect fill="black" height="4" width="4" x="534" y="42"/>
<rect fill="black" height="4" width="4" x="542" y="42"/>
<rect fill="black" height="4" width="4" x="550" y="42"/>
<rect fill="black" height="4" width="4" x="14" y="46"/>
<rect fill="black" height="4" width="4" x="22" y="46"/>
<rect fill="black" height="4" width="4" x="30" y="46"/>
<rect fill="black" height="4" width="4" x="38" y="46"/>
<rect fill="black" height="4" width="4" x="522" y="46"/>
<rect fill="black" height="4" width="4" x="530" y="46"/>
<rect fill="black" height="4" width="4" x="538" y="46"/>
<rect fill="black" height="4" width="4" x="546" y="46"/>
<rect fill="black" height="4" width="4" x="10" y="50"/>
<rect fill="black" height="4" width="4" x="18" y="50"/>
<rect fill="black" height="4" width="4" x="26" y="50"/>
<rect fill="black" height="4" width="4" x="34" y="50"/>
<rect fill="black" height="4" width="4" x="526" y="50"/>
<rect fill="black" height="4" width="4" x="534" y="50"/>
<rect fill="black" height="4" width="4" x="542" y="50"/>
<rect fill="black" height="4" width="4" x="550" y="50"/>
<rect fill="black" height="4" width="4" x="14" y="54"/>
<rect fill="black" height="4" width="4" x="22" y="54"/>
<rect fill="black" height="4" width="4" x="30" y="54"/>
<rect fill="black" height="4" width="4" x="38" y="54"/>
<rect fill="black" height="4" width="4" x="522" y="54"/>
<rect fill="black" height="4" width="4" x="530" y="54"/>
<rect fill="black" height="4" width="4" x="538" y="54"/>
<rect fill="black" height="4" width="4" x="546" y="54"/>
<text fill="black" font-family="monospace" font-size="10" text-anchor="middle" x="282" y="73">
DRIVER LICENSE|DOE,JOHN|DOB:1990-01-01|EXP:2025-12-31|CLASS:A
</text>
</svg>