<svg height="204" viewBox="0 0 184 204" width="184" xmlns="http://www.w3.org/2000/svg">
<rect fill="white" height="100%" width="100%"/>
<rect fill="black" height="4" width="4" x="10" y="10"/>
<rect fill="black" height="4" width="4" x="14" y="10"/>
<rect fill="black" height="4" width="4" x="18" y="10"/>
<rect fill="black" height="4" width="4" x="22" y="10"/>
<rect fill="black" height="4" width="4" x="26" y="10"/>
<rect fill="black" height="4" width="4" x="30" y="10"/>
<rect fill="black" height="4" width="4" x="34" y="10"/>
<rect fill="black" height="4" width="4" x="42" y="10"/>
<rect fill="black" height="4" width="4" x="46" y="10"/>
<rect fill="black" height="4" width="4" x="50" y="10"/>
<rect fill="black" height="4" width="4" x="66" y="10"/>
<rect fill="black" height="4" width="4" x="78" y="10"/>
<rect fill="black" height="4" width="4" x="82" y="10"/>
<rect fill="black" height="4" width="4" x="86" y="10"/>
<rect fill="black" height="4" width="4" x="94" y="10"/>
<rect fill="black" height="4" width="4" x="98" y="10"/>
<rect fill="black" height="4" width="4" x="110" y="10"/>
<rect fill="black" height="4" width="4" x="118" y="10"/>
<rect fill="black" height="4" width="4" x="126" y="10"/>
<rect fill="black" height="4" width="4" x="130" y="10"/>
<rect fill="black" height="4" width="4" x="134" y="10"/>
<rect fill="black" height="4" width="4" x="138" y="10"/>
<rect fill="black" height="4" width="4" x="146" y="10"/>
<rect fill="black" height="4" width="4" x="150" y="10"/>
<rect fill="black" height="4" width="4" x="154" y="10"/>
<rect fill="black" height="4" width="4" x="158" y="10"/>
<rect fill="black" height="4" width="4" x="162" y="10"/>
<rect fill="black" height="4" width="4" x="166" y="10"/>
<rect fill="black" height="4" width="4" x="170" y="10"/>
<rect fill="black" height="4" width="4" x="10" y="14"/>
<rect fill="black" height="4" width="4" x="34" y="14"/>
<rect fill="black" height="4" width="4" x="42" y="14"/>
<rect fill="black" height="4" width="4" x="66" y="14"/>
<rect fill="black" height="4" width="4" x="70" y="14"/>
<rect fill="black" height="4" width="4" x="82" y="14"/>
<rect fill="black" height="4" width="4" x="106" y="14"/>
<rect fill="black" height="4" width="4" x="110" y="14"/>
<rect fill="black" height="4" width="4" x="126" y="14"/>
<rect fill="black" height="4" width="4" x="146" y="14"/>
<rect fill="black" height="4" width="4" x="170" y="14"/>
<rect fill="black" height="4" width="4" x="10" y="18"/>
<rect fill="black" height="4" width="4" x="18" y="18"/>
<rect fill="black" height="4" width="4" x="22" y="18"/>
<rect fill="black" height="4" width="4" x="26" y="18"/>
<rect fill="black" height="4" width="4" x="34" y="18"/>
<rect fill="black" height="4" width="4" x="50" y="18"/>
<rect fill="black" height="4" width="4" x="58" y="18"/>
<rect fill="black" height="4" width="4" x="66" y="18"/>
<rect fill="black" height="4" width="4" x="74" y="18"/>
<rect fill="black" height="4" width="4" x="78" y="18"/>
<rect fill="black" height="4" width="4" x="102" y="18"/>
<rect fill="black" height="4" width="4" x="106" y="18"/>
<rect fill="black" height="4" width="4" x="122" y="18"/>
<rect fill="black" height="4" width="4" x="146" y="18"/>
<rect fill="black" height="4" width="4" x="154" y="18"/>
<rect fill="black" height="4" width="4" x="158" y="18"/>
<rect fill="black" height="4" width="4" x="162" y="18"/>
<rect fill="black" height="4" width="4" x="170" y="18"/>
<rect fill="black" height="4" width="4" x="10" y="22"/>
<rect fill="black" height="4" width="4" x="18" y="22"/>
<rect fill="black" height="4" width="4" x="22" y="22"/>
<rect fill="black" height="4" width="4" x="26" y="22"/>
<rect fill="black" height="4" width="4" x="34" y="22"/>
<rect fill="black" height="4" width="4" x="42" y="22"/>
<rect fill="black" height="4" width="4" x="46" y="22"/>
<rect fill="black" height="4" width="4" x="54" y="22"/>
<rect fill="black" height="4" width="4" x="58" y="22"/>
<rect fill="black" height="4" width="4" x="66" y="22"/>
<rect fill="black" height="4" width="4" x="86" y="22"/>
<rect fill="black" height="4" width="4" x="94" y="22"/>
<rect fill="black" height="4" width="4" x="106" y="22"/>
<rect fill="black" height="4" width="4" x="114" y="22"/>
<rect fill="black" height="4" width="4" x="118" y="22"/>
<rect fill="black" height="4" width="4" x="130" y="22"/>
<rect fill="black" height="4" width="4" x="138" y="22"/>
<rect fill="black" height="4" width="4" x="146" y="22"/>
<rect fill="black" height="4" width="4" x="154" y="22"/>
<rect fill="black" height="4" width="4" x="158" y="22"/>
<rect fill="black" height="4" width="4" x="162" y="22"/>
<rect fill="black" height="4" width="4" x="170" y="22"/>
<rect fill="black" height="4" width="4" x="10" y="26"/>
<rect fill="black" height="4" width="4" x="18" y="26"/>
<rect fill="black" height="4" width="4" x="22" y="26"/>
<rect fill="black" height="4" width="4" x="26" y="26"/>
<rect fill="black" height="4" width="4" x="34" y="26"/>
<rect fill="black" height="4" width="4" x="46" y="26"/>
<rect fill="black" height="4" width="4" x="50" y="26"/>
<rect fill="black" height="4" width="4" x="58" y="26"/>
<rect fill="black" height="4" width="4" x="70" y="26"/>
<rect fill="black" height="4" width="4" x="78" y="26"/>
<rect fill="black" height="4" width="4" x="90" y="26"/>
<rect fill="black" height="4" width="4" x="98" y="26"/>
<rect fill="black" height="4" width="4" x="102" y="26"/>
<rect fill="black" height="4" width="4" x="114" y="26"/>
<rect fill="black" height="4" width="4" x="126" y="26"/>
<rect fill="black" height="4" width="4" x="134" y="26"/>
<rect fill="black" height="4" width="4" x="138" y="26"/>
<rect fill="black" height="4" width="4" x="146" y="26"/>
<rect fill="black" height="4" width="4" x="154" y="26"/>
<rect fill="black" height="4" width="4" x="158" y="26"/>
<rect fill="black" height="4" width="4" x="162" y="26"/>
<rect fill="black" height="4" width="4" x="170" y="26"/>
<rect fill="black" height="4" width="4" x="10" y="30"/>
<rect fill="black" height="4" width="4" x="34" y="30"/>
<rect fill="black" height="4" width="4" x="46" y="30"/>
<rect fill="black" height="4" width="4" x="54" y="30"/>
<rect fill="black" height="4" width="4" x="58" y="30"/>
<rect fill="black" height="4" width="4" x="78" y="30"/>
<rect fill="black" height="4" width="4" x="82" y="30"/>
<rect fill="black" height="4" width="4" x="86" y="30"/>
<rect fill="black" height="4" width="4" x="90" y="30"/>
<rect fill="black" height="4" width="4" x="102" y="30"/>
<rect fill="black" height="4" width="4" x="110" y="30"/>
<rect fill="black" height="4" width="4" x="122" y="30"/>
<rect fill="black" height="4" width="4" x="130" y="30"/>
<rect fill="black" height="4" width="4" x="134" y="30"/>
<rect fill="black" height="4" width="4" x="146" y="30"/>
<rect fill="black" height="4" width="4" x="170" y="30"/>
<rect fill="black" height="4" width="4" x="10" y="34"/>
<rect fill="black" height="4" width="4" x="14" y="34"/>
<rect fill="black" height="4" width="4" x="18" y="34"/>
<rect fill="black" height="4" width="4" x="22" y="34"/>
<rect fill="black" height="4" width="4" x="26" y="34"/>
<rect fill="black" height="4" width="4" x="30" y="34"/>
<rect fill="black" height="4" width="4" x="34" y="34"/>
<rect fill="black" height="4" width="4" x="42" y="34"/>
<rect fill="black" height="4" width="4" x="50" y="34"/>
<rect fill="black" height="4" width="4" x="58" y="34"/>
<rect fill="black" height="4" width="4" x="66" y="34"/>
<rect fill="black" height="4" width="4" x="74" y="34"/>
<rect fill="black" height="4" width="4" x="82" y="34"/>
<rect fill="black" height="4" width="4" x="90" y="34"/>
<rect fill="black" height="4" width="4" x="98" y="34"/>
<rect fill="black" height="4" width="4" x="106" y="34"/>
<rect fill="black" height="4" width="4" x="114" y="34"/>
<rect fill="black" height="4" width="4" x="122" y="34"/>
<rect fill="black" height="4" width="4" x="130" y="34"/>
<rect fill="black" height="4" width="4" x="138" y="34"/>
<rect fill="black" height="4" width="4" x="146" y="34"/>
<rect fill="black" height="4" width="4" x="150" y="34"/>
<rect fill="black" height="4" width="4" x="154" y="34"/>
<rect fill="black" height="4" width="4" x="158" y="34"/>
<rect fill="black" height="4" width="4" x="162" y="34"/>
<rect fill="black" height="4" width="4" x="166" y="34"/>
<rect fill="black" height="4" width="4" x="170" y="34"/>
<rect fill="black" height="4" width="4" x="42" y="38"/>
<rect fill="black" height="4" width="4" x="46" y="38"/>
<rect fill="black" height="4" width="4" x="50" y="38"/>
<rect fill="black" height="4" width="4" x="62" y="38"/>
<rect fill="black" height="4" width="4" x="66" y="38"/>
<rect fill="black" height="4" width="4" x="70" y="38"/>
<rect fill="black" height="4" width="4" x="78" y="38"/>
<rect fill="black" height="4" width="4" x="86" y="38"/>
<rect fill="black" height="4" width="4" x="90" y="38"/>
<rect fill="black" height="4" width="4" x="102" y="38"/>
<rect fill="black" height="4" width="4" x="122" y="38"/>
<rect fill="black" height="4" width="4" x="126" y="38"/>
<rect fill="black" height="4" width="4" x="130" y="38"/>
<rect fill="black" height="4" width="4" x="134" y="38"/>
<rect fill="black" height="4" width="4" x="10" y="42"/>
<rect fill="black" height="4" width="4" x="18" y="42"/>
<rect fill="black" height="4" width="4" x="22" y="42"/>
<rect fill="black" height="4" width="4" x="30" y="42"/>
<rect fill="black" height="4" width="4" x="34" y="42"/>
<rect fill="black" height="4" width="4" x="38" y="42"/>
<rect fill="black" height="4" width="4" x="58" y="42"/>
<rect fill="black" height="4" width="4" x="62" y="42"/>
<rect fill="black" height="4" width="4" x="70" y="42"/>
<rect fill="black" height="4" width="4" x="78" y="42"/>
<rect fill="black" height="4" width="4" x="82" y="42"/>
<rect fill="black" height="4" width="4" x="86" y="42"/>
<rect fill="black" height="4" width="4" x="90" y="42"/>
<rect fill="black" height="4" width="4" x="98" y="42"/>
<rect fill="black" height="4" width="4" x="102" y="42"/>
<rect fill="black" height="4" width="4" x="126" y="42"/>
<rect fill="black" height="4" width="4" x="130" y="42"/>
<rect fill="black" height="4" width="4" x="146" y="42"/>
<rect fill="black" height="4" width="4" x="158" y="42"/>
<rect fill="black" height="4" width="4" x="166" y="42"/>
<rect fill="black" height="4" width="4" x="170" y="42"/>
<rect fill="black" height="4" width="4" x="62" y="46"/>
<rect fill="black" height="4" width="4" x="78" y="46"/>
<rect fill="black" height="4" width="4" x="82" y="46"/>
<rect fill="black" height="4" width="4" x="90" y="46"/>
<rect fill="black" height="4" width="4" x="94" y="46"/>
<rect fill="black" height="4" width="4" x="98" y="46"/>
<rect fill="black" height="4" width="4" x="106" y="46"/>
<rect fill="black" height="4" width="4" x="114" y="46"/>
<rect fill="black" height="4" width="4" x="118" y="46"/>
<rect fill="black" height="4" width="4" x="122" y="46"/>
<rect fill="black" height="4" width="4" x="126" y="46"/>
<rect fill="black" height="4" width="4" x="142" y="46"/>
<rect fill="black" height="4" width="4" x="150" y="46"/>
<rect fill="black" height="4" width="4" x="166" y="46"/>
<rect fill="black" height="4" width="4" x="170" y="46"/>
<rect fill="black" height="4" width="4" x="10" y="50"/>
<rect fill="black" height="4" width="4" x="14" y="50"/>
<rect fill="black" height="4" width="4" x="26" y="50"/>
<rect fill="black" height="4" width="4" x="34" y="50"/>
<rect fill="black" height="4" width="4" x="50" y="50"/>
<rect fill="black" height="4" width="4" x="54" y="50"/>
<rect fill="black" height="4" width="4" x="58" y="50"/>
<rect fill="black" height="4" width="4" x="70" y="50"/>
<rect fill="black" height="4" width="4" x="90" y="50"/>
<rect fill="black" height="4" width="4" x="94" y="50"/>
<rect fill="black" height="4" width="4" x="98" y="50"/>
<rect fill="black" height="4" width="4" x="102" y="50"/>
<rect fill="black" height="4" width="4" x="114" y="50"/>
<rect fill="black" height="4" width="4" x="122" y="50"/>
<rect fill="black" height="4" width="4" x="130" y="50"/>
<rect fill="black" height="4" width="4" x="154" y="50"/>
<rect fill="black" height="4" width="4" x="162" y="50"/>
<rect fill="black" height="4" width="4" x="166" y="50"/>
<rect fill="black" height="4" width="4" x="170" y="50"/>
<rect fill="black" height="4" width="4" x="10" y="54"/>
<rect fill="black" height="4" width="4" x="26" y="54"/>
<rect fill="black" height="4" width="4" x="42" y="54"/>
<rect fill="black" height="4" width="4" x="46" y="54"/>
<rect fill="black" height="4" width="4" x="58" y="54"/>
<rect fill="black" height="4" width="4" x="62" y="54"/>
<rect fill="black" height="4" width="4" x="66" y="54"/>
<rect fill="black" height="4" width="4" x="70" y="54"/>
<rect fill="black" height="4" width="4" x="74" y="54"/>
<rect fill="black" height="4" width="4" x="82" y="54"/>
<rect fill="black" height="4" width="4" x="86" y="54"/>
<rect fill="black" height="4" width="4" x="90" y="54"/>
<rect fill="black" height="4" width="4" x="98" y="54"/>
<rect fill="black" height="4" width="4" x="110" y="54"/>
<rect fill="black" height="4" width="4" x="114" y="54"/>
<rect fill="black" height="4" width="4" x="118" y="54"/>
<rect fill="black" height="4" width="4" x="122" y="54"/>
<rect fill="black" height="4" width="4" x="126" y="54"/>
<rect fill="black" height="4" width="4" x="130" y="54"/>
<rect fill="black" height="4" width="4" x="134" y="54"/>
<rect fill="black" height="4" width="4" x="138" y="54"/>
<rect fill="black" height="4" width="4" x="142" y="54"/>
<rect fill="black" height="4" width="4" x="154" y="54"/>
<rect fill="black" height="4" width="4" x="158" y="54"/>
<rect fill="black" height="4" width="4" x="166" y="54"/>
<rect fill="black" height="4" width="4" x="14" y="58"/>
<rect fill="black" height="4" width="4" x="18" y="58"/>
<rect fill="black" height="4" width="4" x="22" y="58"/>
<rect fill="black" height="4" width="4" x="26" y="58"/>
<rect fill="black" height="4" width="4" x="30" y="58"/>
<rect fill="black" height="4" width="4" x="34" y="58"/>
<rect fill="black" height="4" width="4" x="50" y="58"/>
<rect fill="black" height="4" width="4" x="54" y="58"/>
<rect fill="black" height="4" width="4" x="62" y="58"/>
<rect fill="black" height="4" width="4" x="66" y="58"/>
<rect fill="black" height="4" width="4" x="70" y="58"/>
<rect fill="black" height="4" width="4" x="74" y="58"/>
<rect fill="black" height="4" width="4" x="78" y="58"/>
<rect fill="black" height="4" width="4" x="82" y="58"/>
<rect fill="black" height="4" width="4" x="90" y="58"/>
<rect fill="black" height="4" width="4" x="94" y="58"/>
<rect fill="black" height="4" width="4" x="98" y="58"/>
<rect fill="black" height="4" width="4" x="106" y="58"/>
<rect fill="black" height="4" width="4" x="114" y="58"/>
<rect fill="black" height="4" width="4" x="122" y="58"/>
<rect fill="black" height="4" width="4" x="134" y="58"/>
<rect fill="black" height="4" width="4" x="142" y="58"/>
<rect fill="black" height="4" width="4" x="146" y="58"/>
<rect fill="black" height="4" width="4" x="166" y="58"/>
<rect fill="black" height="4" width="4" x="170" y="58"/>
<rect fill="black" height="4" width="4" x="10" y="62"/>
<rect fill="black" height="4" width="4" x="14" y="62"/>
<rect fill="black" height="4" width="4" x="18" y="62"/>
<rect fill="black" height="4" width="4" x="22" y="62"/>
<rect fill="black" height="4" width="4" x="30" y="62"/>
<rect fill="black" height="4" width="4" x="42" y="62"/>
<rect fill="black" height="4" width="4" x="46" y="62"/>
<rect fill="black" height="4" width="4" x="50" y="62"/>
<rect fill="black" height="4" width="4" x="54" y="62"/>
<rect fill="black" height="4" width="4" x="62" y="62"/>
<rect fill="black" height="4" width="4" x="70" y="62"/>
<rect fill="black" height="4" width="4" x="74" y="62"/>
<rect fill="black" height="4" width="4" x="90" y="62"/>
<rect fill="black" height="4" width="4" x="98" y="62"/>
<rect fill="black" height="4" width="4" x="102" y="62"/>
<rect fill="black" height="4" width="4" x="106" y="62"/>
<rect fill="black" height="4" width="4" x="110" y="62"/>
<rect fill="black" height="4" width="4" x="114" y="62"/>
<rect fill="black" height="4" width="4" x="126" y="62"/>
<rect fill="black" height="4" width="4" x="134" y="62"/>
<rect fill="black" height="4" width="4" x="150" y="62"/>
<rect fill="black" height="4" width="4" x="154" y="62"/>
<rect fill="black" height="4" width="4" x="158" y="62"/>
<rect fill="black" height="4" width="4" x="10" y="66"/>
<rect fill="black" height="4" width="4" x="34" y="66"/>
<rect fill="black" height="4" width="4" x="38" y="66"/>
<rect fill="black" height="4" width="4" x="46" y="66"/>
<rect fill="black" height="4" width="4" x="70" y="66"/>
<rect fill="black" height="4" width="4" x="74" y="66"/>
<rect fill="black" height="4" width="4" x="82" y="66"/>
<rect fill="black" height="4" width="4" x="86" y="66"/>
<rect fill="black" height="4" width="4" x="90" y="66"/>
<rect fill="black" height="4" width="4" x="102" y="66"/>
<rect fill="black" height="4" width="4" x="110" y="66"/>
<rect fill="black" height="4" width="4" x="126" y="66"/>
<rect fill="black" height="4" width="4" x="134" y="66"/>
<rect fill="black" height="4" width="4" x="158" y="66"/>
<rect fill="black" height="4" width="4" x="166" y="66"/>
<rect fill="black" height="4" width="4" x="170" y="66"/>
<rect fill="black" height="4" width="4" x="10" y="70"/>
<rect fill="black" height="4" width="4" x="22" y="70"/>
<rect fill="black" height="4" width="4" x="26" y="70"/>
<rect fill="black" height="4" width="4" x="38" y="70"/>
<rect fill="black" height="4" width="4" x="54" y="70"/>
<rect fill="black" height="4" width="4" x="58" y="70"/>
<rect fill="black" height="4" width="4" x="62" y="70"/>
<rect fill="black" height="4" width="4" x="74" y="70"/>
<rect fill="black" height="4" width="4" x="82" y="70"/>
<rect fill="black" height="4" width="4" x="98" y="70"/>
<rect fill="black" height="4" width="4" x="102" y="70"/>
<rect fill="black" height="4" width="4" x="110" y="70"/>
<rect fill="black" height="4" width="4" x="114" y="70"/>
<rect fill="black" height="4" width="4" x="118" y="70"/>
<rect fill="black" height="4" width="4" x="134" y="70"/>
<rect fill="black" height="4" width="4" x="138" y="70"/>
<rect fill="black" height="4" width="4" x="142" y="70"/>
<rect fill="black" height="4" width="4" x="154" y="70"/>
<rect fill="black" height="4" width="4" x="170" y="70"/>
<rect fill="black" height="4" width="4" x="14" y="74"/>
<rect fill="black" height="4" width="4" x="22" y="74"/>
<rect fill="black" height="4" width="4" x="34" y="74"/>
<rect fill="black" height="4" width="4" x="38" y="74"/>
<rect fill="black" height="4" width="4" x="42" y="74"/>
<rect fill="black" height="4" width="4" x="46" y="74"/>
<rect fill="black" height="4" width="4" x="66" y="74"/>
<rect fill="black" height="4" width="4" x="70" y="74"/>
<rect fill="black" height="4" width="4" x="78" y="74"/>
<rect fill="black" height="4" width="4" x="94" y="74"/>
<rect fill="black" height="4" width="4" x="106" y="74"/>
<rect fill="black" height="4" width="4" x="114" y="74"/>
<rect fill="black" height="4" width="4" x="122" y="74"/>
<rect fill="black" height="4" width="4" x="130" y="74"/>
<rect fill="black" height="4" width="4" x="138" y="74"/>
<rect fill="black" height="4" width="4" x="150" y="74"/>
<rect fill="black" height="4" width="4" x="158" y="74"/>
<rect fill="black" height="4" width="4" x="162" y="74"/>
<rect fill="black" height="4" width="4" x="10" y="78"/>
<rect fill="black" height="4" width="4" x="38" y="78"/>
<rect fill="black" height="4" width="4" x="42" y="78"/>
<rect fill="black" height="4" width="4" x="46" y="78"/>
<rect fill="black" height="4" width="4" x="58" y="78"/>
<rect fill="black" height="4" width="4" x="66" y="78"/>
<rect fill="black" height="4" width="4" x="70" y="78"/>
<rect fill="black" height="4" width="4" x="74" y="78"/>
<rect fill="black" height="4" width="4" x="82" y="78"/>
<rect fill="black" height="4" width="4" x="86" y="78"/>
<rect fill="black" height="4" width="4" x="94" y="78"/>
<rect fill="black" height="4" width="4" x="102" y="78"/>
<rect fill="black" height="4" width="4" x="110" y="78"/>
<rect fill="black" height="4" width="4" x="114" y="78"/>
<rect fill="black" height="4" width="4" x="118" y="78"/>
<rect fill="black" height="4" width="4" x="126" y="78"/>
<rect fill="black" height="4" width="4" x="130" y="78"/>
<rect fill="black" height="4" width="4" x="134" y="78"/>
<rect fill="black" height="4" width="4" x="146" y="78"/>
<rect fill="black" height="4" width="4" x="150" y="78"/>
<rect fill="black" height="4" width="4" x="154" y="78"/>
<rect fill="black" height="4" width="4" x="158" y="78"/>
<rect fill="black" height="4" width="4" x="162" y="78"/>
<rect fill="black" height="4" width="4" x="166" y="78"/>
<rect fill="black" height="4" width="4" x="10" y="82"/>
<rect fill="black" height="4" width="4" x="14" y="82"/>
<rect fill="black" height="4" width="4" x="22" y="82"/>
<rect fill="black" height="4" width="4" x="30" y="82"/>
<rect fill="black" height="4" width="4" x="34" y="82"/>
<rect fill="black" height="4" width="4" x="38" y="82"/>
<rect fill="black" height="4" width="4" x="42" y="82"/>
<rect fill="black" height="4" width="4" x="46" y="82"/>
<rect fill="black" height="4" width="4" x="50" y="82"/>
<rect fill="black" height="4" width="4" x="82" y="82"/>
<rect fill="black" height="4" width="4" x="86" y="82"/>
<rect fill="black" height="4" width="4" x="98" y="82"/>
<rect fill="black" height="4" width="4" x="106" y="82"/>
<rect fill="black" height="4" width="4" x="118" y="82"/>
<rect fill="black" height="4" width="4" x="126" y="82"/>
<rect fill="black" height="4" width="4" x="134" y="82"/>
<rect fill="black" height="4" width="4" x="138" y="82"/>
<rect fill="black" height="4" width="4" x="142" y="82"/>
<rect fill="black" height="4" width="4" x="146" y="82"/>
<rect fill="black" height="4" width="4" x="150" y="82"/>
<rect fill="black" height="4" width="4" x="154" y="82"/>
<rect fill="black" height="4" width="4" x="158" y="82"/>
<rect fill="black" height="4" width="4" x="162" y="82"/>
<rect fill="black" height="4" width="4" x="166" y="82"/>
<rect fill="black" height="4" width="4" x="18" y="86"/>
<rect fill="black" height="4" width="4" x="30" y="86"/>
<rect fill="black" height="4" width="4" x="42" y="86"/>
<rect fill="black" height="4" width="4" x="46" y="86"/>
<rect fill="black" height="4" width="4" x="50" y="86"/>
<rect fill="black" height="4" width="4" x="54" y="86"/>
<rect fill="black" height="4" width="4" x="62" y="86"/>
<rect fill="black" height="4" width="4" x="74" y="86"/>
<rect fill="black" height="4" width="4" x="78" y="86"/>
<rect fill="black" height="4" width="4" x="82" y="86"/>
<rect fill="black" height="4" width="4" x="90" y="86"/>
<rect fill="black" height="4" width="4" x="94" y="86"/>
<rect fill="black" height="4" width="4" x="134" y="86"/>
<rect fill="black" height="4" width="4" x="138" y="86"/>
<rect fill="black" height="4" width="4" x="142" y="86"/>
<rect fill="black" height="4" width="4" x="150" y="86"/>
<rect fill="black" height="4" width="4" x="154" y="86"/>
<rect fill="black" height="4" width="4" x="162" y="86"/>
<rect fill="black" height="4" width="4" x="166" y="86"/>
<rect fill="black" height="4" width="4" x="170" y="86"/>
<rect fill="black" height="4" width="4" x="18" y="90"/>
<rect fill="black" height="4" width="4" x="22" y="90"/>
<rect fill="black" height="4" width="4" x="26" y="90"/>
<rect fill="black" height="4" width="4" x="34" y="90"/>
<rect fill="black" height="4" width="4" x="42" y="90"/>
<rect fill="black" height="4" width="4" x="50" y="90"/>
<rect fill="black" height="4" width="4" x="58" y="90"/>
<rect fill="black" height="4" width="4" x="74" y="90"/>
<rect fill="black" height="4" width="4" x="90" y="90"/>
<rect fill="black" height="4" width="4" x="106" y="90"/>
<rect fill="black" height="4" width="4" x="110" y="90"/>
<rect fill="black" height="4" width="4" x="118" y="90"/>
<rect fill="black" height="4" width="4" x="122" y="90"/>
<rect fill="black" height="4" width="4" x="130" y="90"/>
<rect fill="black" height="4" width="4" x="142" y="90"/>
<rect fill="black" height="4" width="4" x="146" y="90"/>
<rect fill="black" height="4" width="4" x="158" y="90"/>
<rect fill="black" height="4" width="4" x="166" y="90"/>
<rect fill="black" height="4" width="4" x="42" y="94"/>
<rect fill="black" height="4" width="4" x="50" y="94"/>
<rect fill="black" height="4" width="4" x="62" y="94"/>
<rect fill="black" height="4" width="4" x="66" y="94"/>
<rect fill="black" height="4" width="4" x="86" y="94"/>
<rect fill="black" height="4" width="4" x="90" y="94"/>
<rect fill="black" height="4" width="4" x="106" y="94"/>
<rect fill="black" height="4" width="4" x="110" y="94"/>
<rect fill="black" height="4" width="4" x="114" y="94"/>
<rect fill="black" height="4" width="4" x="118" y="94"/>
<rect fill="black" height="4" width="4" x="122" y="94"/>
<rect fill="black" height="4" width="4" x="130" y="94"/>
<rect fill="black" height="4" width="4" x="146" y="94"/>
<rect fill="black" height="4" width="4" x="150" y="94"/>
<rect fill="black" height="4" width="4" x="154" y="94"/>
<rect fill="black" height="4" width="4" x="166" y="94"/>
<rect fill="black" height="4" width="4" x="10" y="98"/>
<rect fill="black" height="4" width="4" x="22" y="98"/>
<rect fill="black" height="4" width="4" x="26" y="98"/>
<rect fill="black" height="4" width="4" x="30" y="98"/>
<rect fill="black" height="4" width="4" x="34" y="98"/>
<rect fill="black" height="4" width="4" x="42" y="98"/>
<rect fill="black" height="4" width="4" x="46" y="98"/>
<rect fill="black" height="4" width="4" x="54" y="98"/>
<rect fill="black" height="4" width="4" x="62" y="98"/>
<rect fill="black" height="4" width="4" x="66" y="98"/>
<rect fill="black" height="4" width="4" x="70" y="98"/>
<rect fill="black" height="4" width="4" x="74" y="98"/>
<rect fill="black" height="4" width="4" x="90" y="98"/>
<rect fill="black" height="4" width="4" x="106" y="98"/>
<rect fill="black" height="4" width="4" x="110" y="98"/>
<rect fill="black" height="4" width="4" x="118" y="98"/>
<rect fill="black" height="4" width="4" x="130" y="98"/>
<rect fill="black" height="4" width="4" x="150" y="98"/>
<rect fill="black" height="4" width="4" x="162" y="98"/>
<rect fill="black" height="4" width="4" x="170" y="98"/>
<rect fill="black" height="4" width="4" x="18" y="102"/>
<rect fill="black" height="4" width="4" x="22" y="102"/>
<rect fill="black" height="4" width="4" x="38" y="102"/>
<rect fill="black" height="4" width="4" x="46" y="102"/>
<rect fill="black" height="4" width="4" x="50" y="102"/>
<rect fill="black" height="4" width="4" x="62" y="102"/>
<rect fill="black" height="4" width="4" x="70" y="102"/>
<rect fill="black" height="4" width="4" x="78" y="102"/>
<rect fill="black" height="4" width="4" x="82" y="102"/>
<rect fill="black" height="4" width="4" x="86" y="102"/>
<rect fill="black" height="4" width="4" x="94" y="102"/>
<rect fill="black" height="4" width="4" x="98" y="102"/>
<rect fill="black" height="4" width="4" x="106" y="102"/>
<rect fill="black" height="4" width="4" x="110" y="102"/>
<rect fill="black" height="4" width="4" x="114" y="102"/>
<rect fill="black" height="4" width="4" x="118" y="102"/>
<rect fill="black" height="4" width="4" x="130" y="102"/>
<rect fill="black" height="4" width="4" x="134" y="102"/>
<rect fill="black" height="4" width="4" x="138" y="102"/>
<rect fill="black" height="4" width="4" x="142" y="102"/>
<rect fill="black" height="4" width="4" x="150" y="102"/>
<rect fill="black" height="4" width="4" x="166" y="102"/>
<rect fill="black" height="4" width="4" x="10" y="106"/>
<rect fill="black" height="4" width="4" x="22" y="106"/>
<rect fill="black" height="4" width="4" x="26" y="106"/>
<rect fill="black" height="4" width="4" x="30" y="106"/>
<rect fill="black" height="4" width="4" x="34" y="106"/>
<rect fill="black" height="4" width="4" x="38" y="106"/>
<rect fill="black" height="4" width="4" x="42" y="106"/>
<rect fill="black" height="4" width="4" x="46" y="106"/>
<rect fill="black" height="4" width="4" x="54" y="106"/>
<rect fill="black" height="4" width="4" x="58" y="106"/>
<rect fill="black" height="4" width="4" x="74" y="106"/>
<rect fill="black" height="4" width="4" x="78" y="106"/>
<rect fill="black" height="4" width="4" x="90" y="106"/>
<rect fill="black" height="4" width="4" x="94" y="106"/>
<rect fill="black" height="4" width="4" x="98" y="106"/>
<rect fill="black" height="4" width="4" x="106" y="106"/>
<rect fill="black" height="4" width="4" x="110" y="106"/>
<rect fill="black" height="4" width="4" x="114" y="106"/>
<rect fill="black" height="4" width="4" x="122" y="106"/>
<rect fill="black" height="4" width="4" x="126" y="106"/>
<rect fill="black" height="4" width="4" x="130" y="106"/>
<rect fill="black" height="4" width="4" x="142" y="106"/>
<rect fill="black" height="4" width="4" x="158" y="106"/>
<rect fill="black" height="4" width="4" x="166" y="106"/>
<rect fill="black" height="4" width="4" x="14" y="110"/>
<rect fill="black" height="4" width="4" x="26" y="110"/>
<rect fill="black" height="4" width="4" x="42" y="110"/>
<rect fill="black" height="4" width="4" x="46" y="110"/>
<rect fill="black" height="4" width="4" x="50" y="110"/>
<rect fill="black" height="4" width="4" x="54" y="110"/>
<rect fill="black" height="4" width="4" x="58" y="110"/>
<rect fill="black" height="4" width="4" x="62" y="110"/>
<rect fill="black" height="4" width="4" x="66" y="110"/>
<rect fill="black" height="4" width="4" x="78" y="110"/>
<rect fill="black" height="4" width="4" x="82" y="110"/>
<rect fill="black" height="4" width="4" x="90" y="110"/>
<rect fill="black" height="4" width="4" x="94" y="110"/>
<rect fill="black" height="4" width="4" x="98" y="110"/>
<rect fill="black" height="4" width="4" x="106" y="110"/>
<rect fill="black" height="4" width="4" x="110" y="110"/>
<rect fill="black" height="4" width="4" x="122" y="110"/>
<rect fill="black" height="4" width="4" x="126" y="110"/>
<rect fill="black" height="4" width="4" x="146" y="110"/>
<rect fill="black" height="4" width="4" x="150" y="110"/>
<rect fill="black" height="4" width="4" x="162" y="110"/>
<rect fill="black" height="4" width="4" x="10" y="114"/>
<rect fill="black" height="4" width="4" x="18" y="114"/>
<rect fill="black" height="4" width="4" x="26" y="114"/>
<rect fill="black" height="4" width="4" x="30" y="114"/>
<rect fill="black" height="4" width="4" x="34" y="114"/>
<rect fill="black" height="4" width="4" x="38" y="114"/>
<rect fill="black" height="4" width="4" x="46" y="114"/>
<rect fill="black" height="4" width="4" x="50" y="114"/>
<rect fill="black" height="4" width="4" x="54" y="114"/>
<rect fill="black" height="4" width="4" x="58" y="114"/>
<rect fill="black" height="4" width="4" x="70" y="114"/>
<rect fill="black" height="4" width="4" x="74" y="114"/>
<rect fill="black" height="4" width="4" x="78" y="114"/>
<rect fill="black" height="4" width="4" x="86" y="114"/>
<rect fill="black" height="4" width="4" x="90" y="114"/>
<rect fill="black" height="4" width="4" x="106" y="114"/>
<rect fill="black" height="4" width="4" x="118" y="114"/>
<rect fill="black" height="4" width="4" x="134" y="114"/>
<rect fill="black" height="4" width="4" x="154" y="114"/>
<rect fill="black" height="4" width="4" x="162" y="114"/>
<rect fill="black" height="4" width="4" x="170" y="114"/>
<rect fill="black" height="4" width="4" x="10" y="118"/>
<rect fill="black" height="4" width="4" x="14" y="118"/>
<rect fill="black" height="4" width="4" x="26" y="118"/>
<rect fill="black" height="4" width="4" x="42" y="118"/>
<rect fill="black" height="4" width="4" x="58" y="118"/>
<rect fill="black" height="4" width="4" x="66" y="118"/>
<rect fill="black" height="4" width="4" x="70" y="118"/>
<rect fill="black" height="4" width="4" x="94" y="118"/>
<rect fill="black" height="4" width="4" x="106" y="118"/>
<rect fill="black" height="4" width="4" x="114" y="118"/>
<rect fill="black" height="4" width="4" x="122" y="118"/>
<rect fill="black" height="4" width="4" x="130" y="118"/>
<rect fill="black" height="4" width="4" x="146" y="118"/>
<rect fill="black" height="4" width="4" x="154" y="118"/>
<rect fill="black" height="4" width="4" x="166" y="118"/>
<rect fill="black" height="4" width="4" x="18" y="122"/>
<rect fill="black" height="4" width="4" x="22" y="122"/>
<rect fill="black" height="4" width="4" x="34" y="122"/>
<rect fill="black" height="4" width="4" x="38" y="122"/>
<rect fill="black" height="4" width="4" x="42" y="122"/>
<rect fill="black" height="4" width="4" x="50" y="122"/>
<rect fill="black" height="4" width="4" x="54" y="122"/>
<rect fill="black" height="4" width="4" x="62" y="122"/>
<rect fill="black" height="4" width="4" x="78" y="122"/>
<rect fill="black" height="4" width="4" x="90" y="122"/>
<rect fill="black" height="4" width="4" x="106" y="122"/>
<rect fill="black" height="4" width="4" x="118" y="122"/>
<rect fill="black" height="4" width="4" x="126" y="122"/>
<rect fill="black" height="4" width="4" x="130" y="122"/>
<rect fill="black" height="4" width="4" x="142" y="122"/>
<rect fill="black" height="4" width="4" x="146" y="122"/>
<rect fill="black" height="4" width="4" x="150" y="122"/>
<rect fill="black" height="4" width="4" x="166" y="122"/>
<rect fill="black" height="4" width="4" x="18" y="126"/>
<rect fill="black" height="4" width="4" x="22" y="126"/>
<rect fill="black" height="4" width="4" x="50" y="126"/>
<rect fill="black" height="4" width="4" x="54" y="126"/>
<rect fill="black" height="4" width="4" x="58" y="126"/>
<rect fill="black" height="4" width="4" x="62" y="126"/>
<rect fill="black" height="4" width="4" x="66" y="126"/>
<rect fill="black" height="4" width="4" x="70" y="126"/>
<rect fill="black" height="4" width="4" x="86" y="126"/>
<rect fill="black" height="4" width="4" x="90" y="126"/>
<rect fill="black" height="4" width="4" x="98" y="126"/>
<rect fill="black" height="4" width="4" x="126" y="126"/>
<rect fill="black" height="4" width="4" x="138" y="126"/>
<rect fill="black" height="4" width="4" x="158" y="126"/>
<rect fill="black" height="4" width="4" x="166" y="126"/>
<rect fill="black" height="4" width="4" x="170" y="126"/>
<rect fill="black" height="4" width="4" x="10" y="130"/>
<rect fill="black" height="4" width="4" x="18" y="130"/>
<rect fill="black" height="4" width="4" x="22" y="130"/>
<rect fill="black" height="4" width="4" x="30" y="130"/>
<rect fill="black" height="4" width="4" x="34" y="130"/>
<rect fill="black" height="4" width="4" x="42" y="130"/>
<rect fill="black" height="4" width="4" x="54" y="130"/>
<rect fill="black" height="4" width="4" x="62" y="130"/>
<rect fill="black" height="4" width="4" x="66" y="130"/>
<rect fill="black" height="4" width="4" x="70" y="130"/>
<rect fill="black" height="4" width="4" x="82" y="130"/>
<rect fill="black" height="4" width="4" x="86" y="130"/>
<rect fill="black" height="4" width="4" x="98" y="130"/>
<rect fill="black" height="4" width="4" x="110" y="130"/>
<rect fill="black" height="4" width="4" x="114" y="130"/>
<rect fill="black" height="4" width="4" x="130" y="130"/>
<rect fill="black" height="4" width="4" x="134" y="130"/>
<rect fill="black" height="4" width="4" x="138" y="130"/>
<rect fill="black" height="4" width="4" x="154" y="130"/>
<rect fill="black" height="4" width="4" x="166" y="130"/>
<rect fill="black" height="4" width="4" x="170" y="130"/>
<rect fill="black" height="4" width="4" x="26" y="134"/>
<rect fill="black" height="4" width="4" x="30" y="134"/>
<rect fill="black" height="4" width="4" x="38" y="134"/>
<rect fill="black" height="4" width="4" x="46" y="134"/>
<rect fill="black" height="4" width="4" x="50" y="134"/>
<rect fill="black" height="4" width="4" x="58" y="134"/>
<rect fill="black" height="4" width="4" x="62" y="134"/>
<rect fill="black" height="4" width="4" x="74" y="134"/>
<rect fill="black" height="4" width="4" x="78" y="134"/>
<rect fill="black" height="4" width="4" x="86" y="134"/>
<rect fill="black" height="4" width="4" x="102" y="134"/>
<rect fill="black" height="4" width="4" x="110" y="134"/>
<rect fill="black" height="4" width="4" x="114" y="134"/>
<rect fill="black" height="4" width="4" x="118" y="134"/>
<rect fill="black" height="4" width="4" x="122" y="134"/>
<rect fill="black" height="4" width="4" x="126" y="134"/>
<rect fill="black" height="4" width="4" x="130" y="134"/>
<rect fill="black" height="4" width="4" x="134" y="134"/>
<rect fill="black" height="4" width="4" x="138" y="134"/>
<rect fill="black" height="4" width="4" x="142" y="134"/>
<rect fill="black" height="4" width="4" x="146" y="134"/>
<rect fill="black" height="4" width="4" x="150" y="134"/>
<rect fill="black" height="4" width="4" x="154" y="134"/>
<rect fill="black" height="4" width="4" x="158" y="134"/>
<rect fill="black" height="4" width="4" x="166" y="134"/>
<rect fill="black" height="4" width="4" x="170" y="134"/>
<rect fill="black" height="4" width="4" x="14" y="138"/>
<rect fill="black" height="4" width="4" x="18" y="138"/>
<rect fill="black" height="4" width="4" x="22" y="138"/>
<rect fill="black" height="4" width="4" x="30" y="138"/>
<rect fill="black" height="4" width="4" x="34" y="138"/>
<rect fill="black" height="4" width="4" x="38" y="138"/>
<rect fill="black" height="4" width="4" x="42" y="138"/>
<rect fill="black" height="4" width="4" x="46" y="138"/>
<rect fill="black" height="4" width="4" x="70" y="138"/>
<rect fill="black" height="4" width="4" x="78" y="138"/>
<rect fill="black" height="4" width="4" x="82" y="138"/>
<rect fill="black" height="4" width="4" x="98" y="138"/>
<rect fill="black" height="4" width="4" x="106" y="138"/>
<rect fill="black" height="4" width="4" x="110" y="138"/>
<rect fill="black" height="4" width="4" x="114" y="138"/>
<rect fill="black" height="4" width="4" x="118" y="138"/>
<rect fill="black" height="4" width="4" x="122" y="138"/>
<rect fill="black" height="4" width="4" x="134" y="138"/>
<rect fill="black" height="4" width="4" x="138" y="138"/>
<rect fill="black" height="4" width="4" x="142" y="138"/>
<rect fill="black" height="4" width="4" x="146" y="138"/>
<rect fill="black" height="4" width="4" x="150" y="138"/>
<rect fill="black" height="4" width="4" x="154" y="138"/>
<rect fill="black" height="4" width="4" x="158" y="138"/>
<rect fill="black" height="4" width="4" x="42" y="142"/>
<rect fill="black" height="4" width="4" x="50" y="142"/>
<rect fill="black" height="4" width="4" x="54" y="142"/>
<rect fill="black" height="4" width="4" x="74" y="142"/>
<rect fill="black" height="4" width="4" x="78" y="142"/>
<rect fill="black" height="4" width="4" x="82" y="142"/>
<rect fill="black" height="4" width="4" x="94" y="142"/>
<rect fill="black" height="4" width="4" x="102" y="142"/>
<rect fill="black" height="4" width="4" x="110" y="142"/>
<rect fill="black" height="4" width="4" x="114" y="142"/>
<rect fill="black" height="4" width="4" x="118" y="142"/>
<rect fill="black" height="4" width="4" x="122" y="142"/>
<rect fill="black" height="4" width="4" x="130" y="142"/>
<rect fill="black" height="4" width="4" x="138" y="142"/>
<rect fill="black" height="4" width="4" x="154" y="142"/>
<rect fill="black" height="4" width="4" x="162" y="142"/>
<rect fill="black" height="4" width="4" x="170" y="142"/>
<rect fill="black" height="4" width="4" x="10" y="146"/>
<rect fill="black" height="4" width="4" x="14" y="146"/>
<rect fill="black" height="4" width="4" x="18" y="146"/>
<rect fill="black" height="4" width="4" x="22" y="146"/>
<rect fill="black" height="4" width="4" x="26" y="146"/>
<rect fill="black" height="4" width="4" x="30" y="146"/>
<rect fill="black" height="4" width="4" x="34" y="146"/>
<rect fill="black" height="4" width="4" x="42" y="146"/>
<rect fill="black" height="4" width="4" x="54" y="146"/>
<rect fill="black" height="4" width="4" x="58" y="146"/>
<rect fill="black" height="4" width="4" x="74" y="146"/>
<rect fill="black" height="4" width="4" x="82" y="146"/>
<rect fill="black" height="4" width="4" x="90" y="146"/>
<rect fill="black" height="4" width="4" x="102" y="146"/>
<rect fill="black" height="4" width="4" x="106" y="146"/>
<rect fill="black" height="4" width="4" x="110" y="146"/>
<rect fill="black" height="4" width="4" x="122" y="146"/>
<rect fill="black" height="4" width="4" x="126" y="146"/>
<rect fill="black" height="4" width="4" x="134" y="146"/>
<rect fill="black" height="4" width="4" x="138" y="146"/>
<rect fill="black" height="4" width="4" x="146" y="146"/>
<rect fill="black" height="4" width="4" x="154" y="146"/>
<rect fill="black" height="4" width="4" x="158" y="146"/>
<rect fill="black" height="4" width="4" x="162" y="146"/>
<rect fill="black" height="4" width="4" x="166" y="146"/>
<rect fill="black" height="4" width="4" x="170" y="146"/>
<rect fill="black" height="4" width="4" x="10" y="150"/>
<rect fill="black" height="4" width="4" x="34" y="150"/>
<rect fill="black" height="4" width="4" x="42" y="150"/>
<rect fill="black" height="4" width="4" x="50" y="150"/>
<rect fill="black" height="4" width="4" x="54" y="150"/>
<rect fill="black" height="4" width="4" x="62" y="150"/>
<rect fill="black" height="4" width="4" x="78" y="150"/>
<rect fill="black" height="4" width="4" x="86" y="150"/>
<rect fill="black" height="4" width="4" x="90" y="150"/>
<rect fill="black" height="4" width="4" x="118" y="150"/>
<rect fill="black" height="4" width="4" x="122" y="150"/>
<rect fill="black" height="4" width="4" x="130" y="150"/>
<rect fill="black" height="4" width="4" x="138" y="150"/>
<rect fill="black" height="4" width="4" x="154" y="150"/>
<rect fill="black" height="4" width="4" x="158" y="150"/>
<rect fill="black" height="4" width="4" x="170" y="150"/>
<rect fill="black" height="4" width="4" x="10" y="154"/>
<rect fill="black" height="4" width="4" x="18" y="154"/>
<rect fill="black" height="4" width="4" x="22" y="154"/>
<rect fill="black" height="4" width="4" x="26" y="154"/>
<rect fill="black" height="4" width="4" x="34" y="154"/>
<rect fill="black" height="4" width="4" x="46" y="154"/>
<rect fill="black" height="4" width="4" x="54" y="154"/>
<rect fill="black" height="4" width="4" x="74" y="154"/>
<rect fill="black" height="4" width="4" x="94" y="154"/>
<rect fill="black" height="4" width="4" x="106" y="154"/>
<rect fill="black" height="4" width="4" x="114" y="154"/>
<rect fill="black" height="4" width="4" x="118" y="154"/>
<rect fill="black" height="4" width="4" x="130" y="154"/>
<rect fill="black" height="4" width="4" x="138" y="154"/>
<rect fill="black" height="4" width="4" x="142" y="154"/>
<rect fill="black" height="4" width="4" x="146" y="154"/>
<rect fill="black" height="4" width="4" x="150" y="154"/>
<rect fill="black" height="4" width="4" x="154" y="154"/>
<rect fill="black" height="4" width="4" x="170" y="154"/>
<rect fill="black" height="4" width="4" x="10" y="158"/>
<rect fill="black" height="4" width="4" x="18" y="158"/>
<rect fill="black" height="4" width="4" x="22" y="158"/>
<rect fill="black" height="4" width="4" x="26" y="158"/>
<rect fill="black" height="4" width="4" x="34" y="158"/>
<rect fill="black" height="4" width="4" x="42" y="158"/>
<rect fill="black" height="4" width="4" x="46" y="158"/>
<rect fill="black" height="4" width="4" x="50" y="158"/>
<rect fill="black" height="4" width="4" x="54" y="158"/>
<rect fill="black" height="4" width="4" x="58" y="158"/>
<rect fill="black" height="4" width="4" x="62" y="158"/>
<rect fill="black" height="4" width="4" x="70" y="158"/>
<rect fill="black" height="4" width="4" x="78" y="158"/>
<rect fill="black" height="4" width="4" x="86" y="158"/>
<rect fill="black" height="4" width="4" x="90" y="158"/>
<rect fill="black" height="4" width="4" x="98" y="158"/>
<rect fill="black" height="4" width="4" x="106" y="158"/>
<rect fill="black" height="4" width="4" x="110" y="158"/>
<rect fill="black" height="4" width="4" x="114" y="158"/>
<rect fill="black" height="4" width="4" x="118" y="158"/>
<rect fill="black" height="4" width="4" x="122" y="158"/>
<rect fill="black" height="4" width="4" x="130" y="158"/>
<rect fill="black" height="4" width="4" x="134" y="158"/>
<rect fill="black" height="4" width="4" x="150" y="158"/>
<rect fill="black" height="4" width="4" x="10" y="162"/>
<rect fill="black" height="4" width="4" x="18" y="162"/>
<rect fill="black" height="4" width="4" x="22" y="162"/>
<rect fill="black" height="4" width="4" x="26" y="162"/>
<rect fill="black" height="4" width="4" x="34" y="162"/>
<rect fill="black" height="4" width="4" x="42" y="162"/>
<rect fill="black" height="4" width="4" x="50" y="162"/>
<rect fill="black" height="4" width="4" x="54" y="162"/>
<rect fill="black" height="4" width="4" x="62" y="162"/>
<rect fill="black" height="4" width="4" x="74" y="162"/>
<rect fill="black" height="4" width="4" x="78" y="162"/>
<rect fill="black" height="4" width="4" x="98" y="162"/>
<rect fill="black" height="4" width="4" x="118" y="162"/>
<rect fill="black" height="4" width="4" x="122" y="162"/>
<rect fill="black" height="4" width="4" x="134" y="162"/>
<rect fill="black" height="4" width="4" x="138" y="162"/>
<rect fill="black" height="4" width="4" x="142" y="162"/>
<rect fill="black" height="4" width="4" x="146" y="162"/>
<rect fill="black" height="4" width="4" x="162" y="162"/>
<rect fill="black" height="4" width="4" x="170" y="162"/>
<rect fill="black" height="4" width="4" x="10" y="166"/>
<rect fill="black" height="4" width="4" x="34" y="166"/>
<rect fill="black" height="4" width="4" x="54" y="166"/>
<rect fill="black" height="4" width="4" x="58" y="166"/>
<rect fill="black" height="4" width="4" x="66" y="166"/>
<rect fill="black" height="4" width="4" x="74" y="166"/>
<rect fill="black" height="4" width="4" x="82" y="166"/>
<rect fill="black" height="4" width="4" x="90" y="166"/>
<rect fill="black" height="4" width="4" x="94" y="166"/>
<rect fill="black" height="4" width="4" x="106" y="166"/>
<rect fill="black" height="4" width="4" x="114" y="166"/>
<rect fill="black" height="4" width="4" x="118" y="166"/>
<rect fill="black" height="4" width="4" x="126" y="166"/>
<rect fill="black" height="4" width="4" x="130" y="166"/>
<rect fill="black" height="4" width="4" x="134" y="166"/>
<rect fill="black" height="4" width="4" x="138" y="166"/>
<rect fill="black" height="4" width="4" x="146" y="166"/>
<rect fill="black" height="4" width="4" x="150" y="166"/>
<rect fill="black" height="4" width="4" x="154" y="166"/>
<rect fill="black" height="4" width="4" x="162" y="166"/>
<rect fill="black" height="4" width="4" x="10" y="170"/>
<rect fill="black" height="4" width="4" x="14" y="170"/>
<rect fill="black" height="4" width="4" x="18" y="170"/>
<rect fill="black" height="4" width="4" x="22" y="170"/>
<rect fill="black" height="4" width="4" x="26" y="170"/>
<rect fill="black" height="4" width="4" x="30" y="170"/>
<rect fill="black" height="4" width="4" x="34" y="170"/>
<rect fill="black" height="4" width="4" x="42" y="170"/>
<rect fill="black" height="4" width="4" x="46" y="170"/>
<rect fill="black" height="4" width="4" x="50" y="170"/>
<rect fill="black" height="4" width="4" x="54" y="170"/>
<rect fill="black" height="4" width="4" x="58" y="170"/>
<rect fill="black" height="4" width="4" x="62" y="170"/>
<rect fill="black" height="4" width="4" x="66" y="170"/>
<rect fill="black" height="4" width="4" x="86" y="170"/>
<rect fill="black" height="4" width="4" x="90" y="170"/>
<rect fill="black" height="4" width="4" x="94" y="170"/>
<rect fill="black" height="4" width="4" x="102" y="170"/>
<rect fill="black" height="4" width="4" x="110" y="170"/>
<rect fill="black" height="4" width="4" x="142" y="170"/>
<rect fill="black" height="4" width="4" x="146" y="170"/>
<rect fill="black" height="4" width="4" x="162" y="170"/>
<text fill="black" font-family="monospace" font-size="10" text-anchor="middle" x="92" y="189">
00020126580014BR.GOV.BCB.PI...
</text>
</svg>