<svg height="140" viewBox="0 0 120 140" width="120" xmlns="http://www.w3.org/2000/svg">
<rect fill="white" height="100%" width="100%"/>
<rect fill="black" height="4" width="4" x="10" y="10"/>
<rect fill="black" height="4" width="4" x="14" y="10"/>
<rect fill="black" height="4" width="4" x="18" y="10"/>
<rect fill="black" height="4" width="4" x="22" y="10"/>
<rect fill="black" height="4" width="4" x="26" y="10"/>
<rect fill="black" height="4" width="4" x="30" y="10"/>
<rect fill="black" height="4" width="4" x="34" y="10"/>
<rect fill="black" height="4" width="4" x="42" y="10"/>
<rect fill="black" height="4" width="4" x="50" y="10"/>
<rect fill="black" height="4" width="4" x="54" y="10"/>
<rect fill="black" height="4" width="4" x="82" y="10"/>
<rect fill="black" height="4" width="4" x="86" y="10"/>
<rect fill="black" height="4" width="4" x="90" y="10"/>
<rect fill="black" height="4" width="4" x="94" y="10"/>
<rect fill="black" height="4" width="4" x="98" y="10"/>
<rect fill="black" height="4" width="4" x="102" y="10"/>
<rect fill="black" height="4" width="4" x="106" y="10"/>
<rect fill="black" height="4" width="4" x="10" y="14"/>
<rect fill="black" height="4" width="4" x="34" y="14"/>
<rect fill="black" height="4" width="4" x="42" y="14"/>
<rect fill="black" height="4" width="4" x="46" y="14"/>
<rect fill="black" height="4" width="4" x="50" y="14"/>
<rect fill="black" height="4" width="4" x="54" y="14"/>
<rect fill="black" height="4" width="4" x="66" y="14"/>
<rect fill="black" height="4" width="4" x="74" y="14"/>
<rect fill="black" height="4" width="4" x="82" y="14"/>
<rect fill="black" height="4" width="4" x="106" y="14"/>
<rect fill="black" height="4" width="4" x="10" y="18"/>
<rect fill="black" height="4" width="4" x="18" y="18"/>
<rect fill="black" height="4" width="4" x="22" y="18"/>
<rect fill="black" height="4" width="4" x="26" y="18"/>
<rect fill="black" height="4" width="4" x="34" y="18"/>
<rect fill="black" height="4" width="4" x="62" y="18"/>
<rect fill="black" height="4" width="4" x="66" y="18"/>
<rect fill="black" height="4" width="4" x="70" y="18"/>
<rect fill="black" height="4" width="4" x="74" y="18"/>
<rect fill="black" height="4" width="4" x="82" y="18"/>
<rect fill="black" height="4" width="4" x="90" y="18"/>
<rect fill="black" height="4" width="4" x="94" y="18"/>
<rect fill="black" height="4" width="4" x="98" y="18"/>
<rect fill="black" height="4" width="4" x="106" y="18"/>
<rect fill="black" height="4" width="4" x="10" y="22"/>
<rect fill="black" height="4" width="4" x="18" y="22"/>
<rect fill="black" height="4" width="4" x="22" y="22"/>
<rect fill="black" height="4" width="4" x="26" y="22"/>
<rect fill="black" height="4" width="4" x="34" y="22"/>
<rect fill="black" height="4" width="4" x="42" y="22"/>
<rect fill="black" height="4" width="4" x="46" y="22"/>
<rect fill="black" height="4" width="4" x="54" y="22"/>
<rect fill="black" height="4" width="4" x="58" y="22"/>
<rect fill="black" height="4" width="4" x="70" y="22"/>
<rect fill="black" height="4" width="4" x="74" y="22"/>
<rect fill="black" height="4" width="4" x="82" y="22"/>
<rect fill="black" height="4" width="4" x="90" y="22"/>
<rect fill="black" height="4" width="4" x="94" y="22"/>
<rect fill="black" height="4" width="4" x="98" y="22"/>
<rect fill="black" height="4" width="4" x="106" y="22"/>
<rect fill="black" height="4" width="4" x="10" y="26"/>
<rect fill="black" height="4" width="4" x="18" y="26"/>
<rect fill="black" height="4" width="4" x="22" y="26"/>
<rect fill="black" height="4" width="4" x="26" y="26"/>
<rect fill="black" height="4" width="4" x="34" y="26"/>
<rect fill="black" height="4" width="4" x="50" y="26"/>
<rect fill="black" height="4" width="4" x="54" y="26"/>
<rect fill="black" height="4" width="4" x="62" y="26"/>
<rect fill="black" height="4" width="4" x="66" y="26"/>
<rect fill="black" height="4" width="4" x="70" y="26"/>
<rect fill="black" height="4" width="4" x="74" y="26"/>
<rect fill="black" height="4" width="4" x="82" y="26"/>
<rect fill="black" height="4" width="4" x="90" y="26"/>
<rect fill="black" height="4" width="4" x="94" y="26"/>
<rect fill="black" height="4" width="4" x="98" y="26"/>
<rect fill="black" height="4" width="4" x="106" y="26"/>
<rect fill="black" height="4" width="4" x="10" y="30"/>
<rect fill="black" height="4" width="4" x="34" y="30"/>
<rect fill="black" height="4" width="4" x="54" y="30"/>
<rect fill="black" height="4" width="4" x="66" y="30"/>
<rect fill="black" height="4" width="4" x="82" y="30"/>
<rect fill="black" height="4" width="4" x="106" y="30"/>
<rect fill="black" height="4" width="4" x="10" y="34"/>
<rect fill="black" height="4" width="4" x="14" y="34"/>
<rect fill="black" height="4" width="4" x="18" y="34"/>
<rect fill="black" height="4" width="4" x="22" y="34"/>
<rect fill="black" height="4" width="4" x="26" y="34"/>
<rect fill="black" height="4" width="4" x="30" y="34"/>
<rect fill="black" height="4" width="4" x="34" y="34"/>
<rect fill="black" height="4" width="4" x="42" y="34"/>
<rect fill="black" height="4" width="4" x="50" y="34"/>
<rect fill="black" height="4" width="4" x="58" y="34"/>
<rect fill="black" height="4" width="4" x="66" y="34"/>
<rect fill="black" height="4" width="4" x="74" y="34"/>
<rect fill="black" height="4" width="4" x="82" y="34"/>
<rect fill="black" height="4" width="4" x="86" y="34"/>
<rect fill="black" height="4" width="4" x="90" y="34"/>
<rect fill="black" height="4" width="4" x="94" y="34"/>
<rect fill="black" height="4" width="4" x="98" y="34"/>
<rect fill="black" height="4" width="4" x="102" y="34"/>
<rect fill="black" height="4" width="4" x="106" y="34"/>
<rect fill="black" height="4" width="4" x="42" y="38"/>
<rect fill="black" height="4" width="4" x="50" y="38"/>
<rect fill="black" height="4" width="4" x="62" y="38"/>
<rect fill="black" height="4" width="4" x="66" y="38"/>
<rect fill="black" height="4" width="4" x="74" y="38"/>
<rect fill="black" height="4" width="4" x="10" y="42"/>
<rect fill="black" height="4" width="4" x="18" y="42"/>
<rect fill="black" height="4" width="4" x="22" y="42"/>
<rect fill="black" height="4" width="4" x="30" y="42"/>
<rect fill="black" height="4" width="4" x="34" y="42"/>
<rect fill="black" height="4" width="4" x="38" y="42"/>
<rect fill="black" height="4" width="4" x="50" y="42"/>
<rect fill="black" height="4" width="4" x="58" y="42"/>
<rect fill="black" height="4" width="4" x="62" y="42"/>
<rect fill="black" height="4" width="4" x="66" y="42"/>
<rect fill="black" height="4" width="4" x="74" y="42"/>
<rect fill="black" height="4" width="4" x="82" y="42"/>
<rect fill="black" height="4" width="4" x="94" y="42"/>
<rect fill="black" height="4" width="4" x="102" y="42"/>
<rect fill="black" height="4" width="4" x="106" y="42"/>
<rect fill="black" height="4" width="4" x="10" y="46"/>
<rect fill="black" height="4" width="4" x="14" y="46"/>
<rect fill="black" height="4" width="4" x="18" y="46"/>
<rect fill="black" height="4" width="4" x="26" y="46"/>
<rect fill="black" height="4" width="4" x="30" y="46"/>
<rect fill="black" height="4" width="4" x="46" y="46"/>
<rect fill="black" height="4" width="4" x="54" y="46"/>
<rect fill="black" height="4" width="4" x="58" y="46"/>
<rect fill="black" height="4" width="4" x="74" y="46"/>
<rect fill="black" height="4" width="4" x="86" y="46"/>
<rect fill="black" height="4" width="4" x="98" y="46"/>
<rect fill="black" height="4" width="4" x="18" y="50"/>
<rect fill="black" height="4" width="4" x="22" y="50"/>
<rect fill="black" height="4" width="4" x="26" y="50"/>
<rect fill="black" height="4" width="4" x="34" y="50"/>
<rect fill="black" height="4" width="4" x="50" y="50"/>
<rect fill="black" height="4" width="4" x="66" y="50"/>
<rect fill="black" height="4" width="4" x="78" y="50"/>
<rect fill="black" height="4" width="4" x="82" y="50"/>
<rect fill="black" height="4" width="4" x="86" y="50"/>
<rect fill="black" height="4" width="4" x="90" y="50"/>
<rect fill="black" height="4" width="4" x="18" y="54"/>
<rect fill="black" height="4" width="4" x="38" y="54"/>
<rect fill="black" height="4" width="4" x="42" y="54"/>
<rect fill="black" height="4" width="4" x="46" y="54"/>
<rect fill="black" height="4" width="4" x="50" y="54"/>
<rect fill="black" height="4" width="4" x="58" y="54"/>
<rect fill="black" height="4" width="4" x="62" y="54"/>
<rect fill="black" height="4" width="4" x="66" y="54"/>
<rect fill="black" height="4" width="4" x="78" y="54"/>
<rect fill="black" height="4" width="4" x="94" y="54"/>
<rect fill="black" height="4" width="4" x="98" y="54"/>
<rect fill="black" height="4" width="4" x="102" y="54"/>
<rect fill="black" height="4" width="4" x="22" y="58"/>
<rect fill="black" height="4" width="4" x="34" y="58"/>
<rect fill="black" height="4" width="4" x="46" y="58"/>
<rect fill="black" height="4" width="4" x="70" y="58"/>
<rect fill="black" height="4" width="4" x="78" y="58"/>
<rect fill="black" height="4" width="4" x="82" y="58"/>
<rect fill="black" height="4" width="4" x="86" y="58"/>
<rect fill="black" height="4" width="4" x="90" y="58"/>
<rect fill="black" height="4" width="4" x="94" y="58"/>
<rect fill="black" height="4" width="4" x="98" y="58"/>
<rect fill="black" height="4" width="4" x="102" y="58"/>
<rect fill="black" height="4" width="4" x="106" y="58"/>
<rect fill="black" height="4" width="4" x="14" y="62"/>
<rect fill="black" height="4" width="4" x="22" y="62"/>
<rect fill="black" height="4" width="4" x="30" y="62"/>
<rect fill="black" height="4" width="4" x="42" y="62"/>
<rect fill="black" height="4" width="4" x="46" y="62"/>
<rect fill="black" height="4" width="4" x="50" y="62"/>
<rect fill="black" height="4" width="4" x="54" y="62"/>
<rect fill="black" height="4" width="4" x="62" y="62"/>
<rect fill="black" height="4" width="4" x="70" y="62"/>
<rect fill="black" height="4" width="4" x="74" y="62"/>
<rect fill="black" height="4" width="4" x="78" y="62"/>
<rect fill="black" height="4" width="4" x="82" y="62"/>
<rect fill="black" height="4" width="4" x="86" y="62"/>
<rect fill="black" height="4" width="4" x="90" y="62"/>
<rect fill="black" height="4" width="4" x="94" y="62"/>
<rect fill="black" height="4" width="4" x="98" y="62"/>
<rect fill="black" height="4" width="4" x="102" y="62"/>
<rect fill="black" height="4" width="4" x="106" y="62"/>
<rect fill="black" height="4" width="4" x="14" y="66"/>
<rect fill="black" height="4" width="4" x="34" y="66"/>
<rect fill="black" height="4" width="4" x="38" y="66"/>
<rect fill="black" height="4" width="4" x="50" y="66"/>
<rect fill="black" height="4" width="4" x="58" y="66"/>
<rect fill="black" height="4" width="4" x="66" y="66"/>
<rect fill="black" height="4" width="4" x="98" y="66"/>
<rect fill="black" height="4" width="4" x="102" y="66"/>
<rect fill="black" height="4" width="4" x="10" y="70"/>
<rect fill="black" height="4" width="4" x="26" y="70"/>
<rect fill="black" height="4" width="4" x="38" y="70"/>
<rect fill="black" height="4" width="4" x="46" y="70"/>
<rect fill="black" height="4" width="4" x="58" y="70"/>
<rect fill="black" height="4" width="4" x="62" y="70"/>
<rect fill="black" height="4" width="4" x="74" y="70"/>
<rect fill="black" height="4" width="4" x="78" y="70"/>
<rect fill="black" height="4" width="4" x="106" y="70"/>
<rect fill="black" height="4" width="4" x="18" y="74"/>
<rect fill="black" height="4" width="4" x="34" y="74"/>
<rect fill="black" height="4" width="4" x="54" y="74"/>
<rect fill="black" height="4" width="4" x="70" y="74"/>
<rect fill="black" height="4" width="4" x="74" y="74"/>
<rect fill="black" height="4" width="4" x="78" y="74"/>
<rect fill="black" height="4" width="4" x="82" y="74"/>
<rect fill="black" height="4" width="4" x="86" y="74"/>
<rect fill="black" height="4" width="4" x="90" y="74"/>
<rect fill="black" height="4" width="4" x="98" y="74"/>
<rect fill="black" height="4" width="4" x="102" y="74"/>
<rect fill="black" height="4" width="4" x="106" y="74"/>
<rect fill="black" height="4" width="4" x="42" y="78"/>
<rect fill="black" height="4" width="4" x="46" y="78"/>
<rect fill="black" height="4" width="4" x="50" y="78"/>
<rect fill="black" height="4" width="4" x="58" y="78"/>
<rect fill="black" height="4" width="4" x="62" y="78"/>
<rect fill="black" height="4" width="4" x="74" y="78"/>
<rect fill="black" height="4" width="4" x="90" y="78"/>
<rect fill="black" height="4" width="4" x="94" y="78"/>
<rect fill="black" height="4" width="4" x="10" y="82"/>
<rect fill="black" height="4" width="4" x="14" y="82"/>
<rect fill="black" height="4" width="4" x="18" y="82"/>
<rect fill="black" height="4" width="4" x="22" y="82"/>
<rect fill="black" height="4" width="4" x="26" y="82"/>
<rect fill="black" height="4" width="4" x="30" y="82"/>
<rect fill="black" height="4" width="4" x="34" y="82"/>
<rect fill="black" height="4" width="4" x="42" y="82"/>
<rect fill="black" height="4" width="4" x="46" y="82"/>
<rect fill="black" height="4" width="4" x="50" y="82"/>
<rect fill="black" height="4" width="4" x="54" y="82"/>
<rect fill="black" height="4" width="4" x="58" y="82"/>
<rect fill="black" height="4" width="4" x="74" y="82"/>
<rect fill="black" height="4" width="4" x="82" y="82"/>
<rect fill="black" height="4" width="4" x="90" y="82"/>
<rect fill="black" height="4" width="4" x="98" y="82"/>
<rect fill="black" height="4" width="4" x="102" y="82"/>
<rect fill="black" height="4" width="4" x="106" y="82"/>
<rect fill="black" height="4" width="4" x="10" y="86"/>
<rect fill="black" height="4" width="4" x="34" y="86"/>
<rect fill="black" height="4" width="4" x="42" y="86"/>
<rect fill="black" height="4" width="4" x="58" y="86"/>
<rect fill="black" height="4" width="4" x="70" y="86"/>
<rect fill="black" height="4" width="4" x="74" y="86"/>
<rect fill="black" height="4" width="4" x="90" y="86"/>
<rect fill="black" height="4" width="4" x="102" y="86"/>
<rect fill="black" height="4" width="4" x="106" y="86"/>
<rect fill="black" height="4" width="4" x="10" y="90"/>
<rect fill="black" height="4" width="4" x="18" y="90"/>
<rect fill="black" height="4" width="4" x="22" y="90"/>
<rect fill="black" height="4" width="4" x="26" y="90"/>
<rect fill="black" height="4" width="4" x="34" y="90"/>
<rect fill="black" height="4" width="4" x="46" y="90"/>
<rect fill="black" height="4" width="4" x="54" y="90"/>
<rect fill="black" height="4" width="4" x="58" y="90"/>
<rect fill="black" height="4" width="4" x="62" y="90"/>
<rect fill="black" height="4" width="4" x="74" y="90"/>
<rect fill="black" height="4" width="4" x="78" y="90"/>
<rect fill="black" height="4" width="4" x="82" y="90"/>
<rect fill="black" height="4" width="4" x="86" y="90"/>
<rect fill="black" height="4" width="4" x="90" y="90"/>
<rect fill="black" height="4" width="4" x="10" y="94"/>
<rect fill="black" height="4" width="4" x="18" y="94"/>
<rect fill="black" height="4" width="4" x="22" y="94"/>
<rect fill="black" height="4" width="4" x="26" y="94"/>
<rect fill="black" height="4" width="4" x="34" y="94"/>
<rect fill="black" height="4" width="4" x="42" y="94"/>
<rect fill="black" height="4" width="4" x="58" y="94"/>
<rect fill="black" height="4" width="4" x="62" y="94"/>
<rect fill="black" height="4" width="4" x="66" y="94"/>
<rect fill="black" height="4" width="4" x="74" y="94"/>
<rect fill="black" height="4" width="4" x="78" y="94"/>
<rect fill="black" height="4" width="4" x="82" y="94"/>
<rect fill="black" height="4" width="4" x="86" y="94"/>
<rect fill="black" height="4" width="4" x="98" y="94"/>
<rect fill="black" height="4" width="4" x="102" y="94"/>
<rect fill="black" height="4" width="4" x="106" y="94"/>
<rect fill="black" height="4" width="4" x="10" y="98"/>
<rect fill="black" height="4" width="4" x="18" y="98"/>
<rect fill="black" height="4" width="4" x="22" y="98"/>
<rect fill="black" height="4" width="4" x="26" y="98"/>
<rect fill="black" height="4" width="4" x="34" y="98"/>
<rect fill="black" height="4" width="4" x="42" y="98"/>
<rect fill="black" height="4" width="4" x="46" y="98"/>
<rect fill="black" height="4" width="4" x="54" y="98"/>
<rect fill="black" height="4" width="4" x="58" y="98"/>
<rect fill="black" height="4" width="4" x="62" y="98"/>
<rect fill="black" height="4" width="4" x="78" y="98"/>
<rect fill="black" height="4" width="4" x="82" y="98"/>
<rect fill="black" height="4" width="4" x="86" y="98"/>
<rect fill="black" height="4" width="4" x="90" y="98"/>
<rect fill="black" height="4" width="4" x="102" y="98"/>
<rect fill="black" height="4" width="4" x="10" y="102"/>
<rect fill="black" height="4" width="4" x="34" y="102"/>
<rect fill="black" height="4" width="4" x="46" y="102"/>
<rect fill="black" height="4" width="4" x="74" y="102"/>
<rect fill="black" height="4" width="4" x="82" y="102"/>
<rect fill="black" height="4" width="4" x="86" y="102"/>
<rect fill="black" height="4" width="4" x="98" y="102"/>
<rect fill="black" height="4" width="4" x="10" y="106"/>
<rect fill="black" height="4" width="4" x="14" y="106"/>
<rect fill="black" height="4" width="4" x="18" y="106"/>
<rect fill="black" height="4" width="4" x="22" y="106"/>
<rect fill="black" height="4" width="4" x="26" y="106"/>
<rect fill="black" height="4" width="4" x="30" y="106"/>
<rect fill="black" height="4" width="4" x="34" y="106"/>
<rect fill="black" height="4" width="4" x="42" y="106"/>
<rect fill="black" height="4" width="4" x="58" y="106"/>
<rect fill="black" height="4" width="4" x="66" y="106"/>
<rect fill="black" height="4" width="4" x="78" y="106"/>
<rect fill="black" height="4" width="4" x="94" y="106"/>
<rect fill="black" height="4" width="4" x="98" y="106"/>
<rect fill="black" height="4" width="4" x="102" y="106"/>
<rect fill="black" height="4" width="4" x="106" y="106"/>
<text fill="black" font-family="monospace" font-size="10" text-anchor="middle" x="60" y="125">
Hello, QuickCodes!
</text>
</svg>