<svg height="100" viewBox="0 0 210 100" width="210" xmlns="http://www.w3.org/2000/svg">
<rect fill="white" height="100%" width="100%"/>
<rect fill="black" height="60" width="2" x="10" y="10"/>
<rect fill="black" height="60" width="2" x="14" y="10"/>
<rect fill="black" height="60" width="2" x="22" y="10"/>
<rect fill="black" height="60" width="2" x="24" y="10"/>
<rect fill="black" height="60" width="2" x="28" y="10"/>
<rect fill="black" height="60" width="2" x="32" y="10"/>
<rect fill="black" height="60" width="2" x="34" y="10"/>
<rect fill="black" height="60" width="2" x="36" y="10"/>
<rect fill="black" height="60" width="2" x="38" y="10"/>
<rect fill="black" height="60" width="2" x="42" y="10"/>
<rect fill="black" height="60" width="2" x="46" y="10"/>
<rect fill="black" height="60" width="2" x="50" y="10"/>
<rect fill="black" height="60" width="2" x="52" y="10"/>
<rect fill="black" height="60" width="2" x="54" y="10"/>
<rect fill="black" height="60" width="2" x="56" y="10"/>
<rect fill="black" height="60" width="2" x="64" y="10"/>
<rect fill="black" height="60" width="2" x="66" y="10"/>
<rect fill="black" height="60" width="2" x="70" y="10"/>
<rect fill="black" height="60" width="2" x="78" y="10"/>
<rect fill="black" height="60" width="2" x="80" y="10"/>
<rect fill="black" height="60" width="2" x="84" y="10"/>
<rect fill="black" height="60" width="2" x="92" y="10"/>
<rect fill="black" height="60" width="2" x="94" y="10"/>
<rect fill="black" height="60" width="2" x="98" y="10"/>
<rect fill="black" height="60" width="2" x="102" y="10"/>
<rect fill="black" height="60" width="2" x="106" y="10"/>
<rect fill="black" height="60" width="2" x="110" y="10"/>
<rect fill="black" height="60" width="2" x="112" y="10"/>
<rect fill="black" height="60" width="2" x="116" y="10"/>
<rect fill="black" height="60" width="2" x="118" y="10"/>
<rect fill="black" height="60" width="2" x="124" y="10"/>
<rect fill="black" height="60" width="2" x="126" y="10"/>
<rect fill="black" height="60" width="2" x="128" y="10"/>
<rect fill="black" height="60" width="2" x="132" y="10"/>
<rect fill="black" height="60" width="2" x="138" y="10"/>
<rect fill="black" height="60" width="2" x="140" y="10"/>
<rect fill="black" height="60" width="2" x="146" y="10"/>
<rect fill="black" height="60" width="2" x="148" y="10"/>
<rect fill="black" height="60" width="2" x="152" y="10"/>
<rect fill="black" height="60" width="2" x="156" y="10"/>
<rect fill="black" height="60" width="2" x="158" y="10"/>
<rect fill="black" height="60" width="2" x="160" y="10"/>
<rect fill="black" height="60" width="2" x="166" y="10"/>
<rect fill="black" height="60" width="2" x="172" y="10"/>
<rect fill="black" height="60" width="2" x="174" y="10"/>
<rect fill="black" height="60" width="2" x="176" y="10"/>
<rect fill="black" height="60" width="2" x="180" y="10"/>
<rect fill="black" height="60" width="2" x="182" y="10"/>
<rect fill="black" height="60" width="2" x="186" y="10"/>
<rect fill="black" height="60" width="2" x="188" y="10"/>
<rect fill="black" height="60" width="2" x="194" y="10"/>
<rect fill="black" height="60" width="2" x="198" y="10"/>
<text fill="black" font-family="monospace" font-size="12" text-anchor="middle" x="105" y="85">
036000291452
</text>
</svg>